<?xml version="1.0" encoding="UTF-8" standalone="no"?>
<svg
   id="_360"
   data-name="360"
   width="589"
   height="350"
   viewBox="0 0 589 350"
   version="1.1"
   sodipodi:docname="controller.svg"
   inkscape:version="1.1 (c68e22c387, 2021-05-23)"
   xmlns:inkscape="http://www.inkscape.org/namespaces/inkscape"
   xmlns:sodipodi="http://sodipodi.sourceforge.net/DTD/sodipodi-0.dtd"
   xmlns="http://www.w3.org/2000/svg"
   xmlns:svg="http://www.w3.org/2000/svg">
  <defs
     id="defs41" />
  <sodipodi:namedview
     id="namedview39"
     pagecolor="#ffffff"
     bordercolor="#666666"
     borderopacity="1.0"
     inkscape:pageshadow="2"
     inkscape:pageopacity="0.0"
     inkscape:pagecheckerboard="0"
     showgrid="false"
     inkscape:zoom="1.7962649"
     inkscape:cx="294.22164"
     inkscape:cy="175.08554"
     inkscape:window-width="1920"
     inkscape:window-height="1027"
     inkscape:window-x="1912"
     inkscape:window-y="-8"
     inkscape:window-maximized="1"
     inkscape:current-layer="_360" />
  <g
     id="g79"
     inkscape:label="360">
    <g
       id="body">
      <path
         id="outside"
         d="m 294.5,256.26 c -79.65,-0.7 -90.61,10.85 -118.5,35.87 -17.71,16.49 -30.19,25.94 -44.23,35 -54.7,30.82 -72,-17.13 -70.44,-70.45 1.23,-41.1 15.45,-148.88 53.44,-213.36 0,0 21.83,-23 60.23,-23.11 34.37,-0.07 49.33,21.83 66.89,25.94 16.81,3.94 26.3,3.94 52.61,4 m 0,206.08 c 79.65,-0.7 90.61,10.85 118.5,35.87 17.71,16.49 30.19,25.94 44.23,35 54.7,30.82 72,-17.13 70.44,-70.45 -1.23,-41.1 -15.45,-148.88 -53.44,-213.36 0,0 -21.83,-23 -60.23,-23.11 -34.37,-0.07 -49.33,21.83 -66.89,25.94 -16.81,3.94 -26.3,3.94 -52.61,4"
         style="fill:none;stroke:#f4f4f4;stroke-width:1.5px;stroke-miterlimit:10" />
      <path
         id="inside"
         d="m 294.5,246.22 c -80.44,0 -90.39,8.67 -125.06,40 -17.71,16.49 -52.61,48.11 -59,49.51 M 109.24,53.3 c 0,0 23.76,-28 65.32,-28 34.37,0 49.77,26.69 67.33,30.8 16.81,3.94 26.3,3.94 52.61,4 m 184,275.55 c -6.37,-1.4 -41.27,-33 -59,-49.51 -34.67,-31.33 -44.62,-40 -125.06,-40 m 0,-186 c 26.31,-0.11 35.8,-0.11 52.61,-4 17.56,-4.11 33,-30.8 67.33,-30.8 41.56,0 65.32,28 65.32,28"
         style="fill:none;stroke:#f4f4f4;stroke-width:1.5px;stroke-miterlimit:10" />
      <path
         id="top_center"
         data-name="top center"
         d="m 294.5,40.81 c 0,0 -28.5,0 -49.8,-2.81 C 231.46,36.28 207.14,23.07 202.61,20.56 A 0.5,0.5 0 0 0 201.87,21 v 4.18 m 92.63,15.63 c 0,0 28.54,0 49.8,-2.77 13.24,-1.72 37.56,-14.93 42.09,-17.44 a 0.5,0.5 0 0 1 0.74,0.44 v 4.18"
         style="fill:none;stroke:#f4f4f4;stroke-width:1.5px;stroke-linejoin:round" />
    </g>
    <g
       id="right_joystick"
       data-name="right joystick">
      <circle
         id="back"
         cx="359.69"
         cy="179.75999"
         r="50"
         style="fill:none;stroke:#f4f4f4;stroke-width:1.5px;stroke-miterlimit:10" />
      <circle
         id="hole"
         cx="359.69"
         cy="179.75999"
         r="34.5"
         style="fill:none;stroke:#f4f4f4;stroke-width:1.5px;stroke-miterlimit:10" />
      <circle
         id="stick"
         cx="359.69"
         cy="179.75999"
         r="28.99"
         style="fill:none;stroke:#f4f4f4;stroke-width:1.5px;stroke-miterlimit:10" />
      <path
         id="dots"
         d="m 374.59,193.9 a 0.75,0.75 0 1 1 -0.75,-0.75 0.75,0.75 0 0 1 0.75,0.75 z m -0.75,-29 a 0.75,0.75 0 1 0 0.75,0.75 0.75,0.75 0 0 0 -0.75,-0.78 z m -27.54,29 a 0.75,0.75 0 1 1 -1.5,0 0.75,0.75 0 0 1 1.5,0 z m -0.75,-29 a 0.75,0.75 0 1 0 0.75,0.75 0.76,0.76 0 0 0 -0.75,-0.78 z"
         style="fill:none;stroke:#f4f4f4;stroke-width:1.5px;stroke-miterlimit:10" />
    </g>
    <g
       id="d-pad">
      <circle
         id="back-2"
         data-name="back"
         cx="222.69"
         cy="179.75999"
         r="50"
         style="fill:none;stroke:#f4f4f4;stroke-width:1.5px;stroke-miterlimit:10" />
      <circle
         id="hole-2"
         data-name="hole"
         cx="222.69"
         cy="179.75999"
         r="42.259998"
         style="fill:none;stroke:#f4f4f4;stroke-width:1.5px;stroke-miterlimit:10" />
      <circle
         id="pad"
         cx="222.69"
         cy="179.75999"
         r="37"
         style="fill:none;stroke:#f4f4f4;stroke-width:1.5px;stroke-miterlimit:10" />
      <path
         id="cross"
         d="m 234.19,144.59 a 37,37 0 0 0 -23,0 l -1,15.2 a 8,8 0 0 1 -7.44,7.44 l -15.2,1 a 37,37 0 0 0 0,23 l 15.2,1 a 8,8 0 0 1 7.44,7.44 l 1,15.2 a 37,37 0 0 0 23,0 l 1,-15.2 a 8,8 0 0 1 7.45,-7.44 l 15.19,-1 a 36.86,36.86 0 0 0 0,-23 l -15.19,-1 a 8,8 0 0 1 -7.45,-7.44 z"
         style="fill:none;stroke:#f4f4f4;stroke-width:1.5px;stroke-miterlimit:10" />
    </g>
    <g
       id="player_buttons"
       data-name="player buttons">
      <circle
         id="A"
         cx="431.23001"
         cy="134.95"
         r="16.65"
         style="fill:none;stroke:#f4f4f4;stroke-width:1.5px;stroke-miterlimit:10" />
      <circle
         id="B"
         cx="467.98001"
         cy="98.199997"
         r="16.65"
         style="fill:none;stroke:#f4f4f4;stroke-width:1.5px;stroke-miterlimit:10" />
      <circle
         id="Y"
         cx="431.23001"
         cy="61.450001"
         r="16.65"
         style="fill:none;stroke:#f4f4f4;stroke-width:1.5px;stroke-miterlimit:10" />
      <circle
         id="X"
         cx="394.48001"
         cy="98.199997"
         r="16.65"
         style="fill:none;stroke:#f4f4f4;stroke-width:1.5px;stroke-miterlimit:10" />
      <path
         id="connect"
         d="m 241.48,37.45 0.36,-1.61 a 1,1 0 0 1 0.91,-0.79 26.06,26.06 0 0 1 9.67,1 1,1 0 0 1 0.69,1 v 2"
         style="fill:none;stroke:#f4f4f4;stroke-width:1.5px;stroke-miterlimit:10" />
    </g>
    <g
       id="center_buttons"
       data-name="center buttons">
      <path
         id="back-3"
         data-name="back"
         d="m 345.33,88.49 h -18.42 a 8.13,8.13 0 0 1 -6.72,-3.66 31,31 0 0 0 -51.38,0 8.13,8.13 0 0 1 -6.72,3.66 h -18.42 a 13.94,13.94 0 0 0 -13.95,12 13.72,13.72 0 0 0 13.59,15.36 h 18.78 a 8.14,8.14 0 0 1 6.72,3.67 31,31 0 0 0 51.38,0 8.14,8.14 0 0 1 6.72,-3.67 h 18.78 a 13.72,13.72 0 0 0 13.59,-15.36 13.94,13.94 0 0 0 -13.95,-12 z"
         style="fill:none;stroke:#f4f4f4;stroke-width:1.5px;stroke-miterlimit:10" />
      <rect
         id="start"
         x="332.20001"
         y="92.519997"
         width="22.93"
         height="19.32"
         rx="9.6599998"
         style="fill:none;stroke:#f4f4f4;stroke-width:1.5px;stroke-miterlimit:10" />
      <g
         id="home">
        <circle
           id="outside-2"
           data-name="outside"
           cx="294.5"
           cy="102.18"
           r="27"
           style="fill:none;stroke:#f4f4f4;stroke-width:1.5px;stroke-miterlimit:10" />
        <circle
           id="center"
           cx="294.5"
           cy="102.18"
           r="23.41"
           style="fill:none;stroke:#f4f4f4;stroke-width:1.5px;stroke-miterlimit:10" />
        <path
           id="X-2"
           data-name="X"
           d="m 283.44,82.52 a 20,20 0 0 1 8.13,2.48 l 2.16,1.09 a 1.57,1.57 0 0 0 0.71,0.16 1.55,1.55 0 0 0 0.69,-0.16 l 1.8,-0.89 c 3.69,-1.82 6.2,-2.57 8.66,-2.58 h 0.83 a 19.67,19.67 0 0 1 1.64,1.11 29.72,29.72 0 0 0 -6.3,4.71 l -1.59,1.52 A 1.58,1.58 0 0 0 300,92 l 0.8,1 a 100,100 0 0 1 8,12 c 3.2,5.83 4,9.63 3.74,11.12 a 1.64,1.64 0 0 0 0,0.25 v 0.06 -0.06 c -1.23,-3.67 -5,-8.89 -10.32,-14.31 -1,-1 -2.54,-2.48 -4,-3.81 -2.77,-2.51 -3,-2.54 -3.61,-2.54 v 0 c -0.62,0 -0.85,0.19 -2.46,1.55 -7.23,6.06 -14,14.49 -15.49,19.21 v 0 c 0,-0.16 -0.06,-0.3 -0.08,-0.4 -0.62,-3.16 3.4,-12.31 12.28,-23.7 1.17,-1.49 0.15,-2.46 -1.39,-3.93 a 30.79,30.79 0 0 0 -6.41,-4.79 c 0.53,-0.39 1.08,-0.77 1.64,-1.11 h 0.33 a 4.7,4.7 0 0 1 0.54,0"
           style="fill:#f4f4f4" />
      </g>
      <rect
         id="back-4"
         data-name="back"
         x="233.87"
         y="92.519997"
         width="22.93"
         height="19.32"
         rx="9.6599998"
         style="fill:none;stroke:#f4f4f4;stroke-width:1.5px;stroke-miterlimit:10" />
    </g>
    <g
       id="left_joystick"
       data-name="left joystick">
      <circle
         id="back-5"
         data-name="back"
         cx="154.69"
         cy="96.68"
         r="50"
         style="fill:none;stroke:#f4f4f4;stroke-width:1.5px;stroke-miterlimit:10" />
      <circle
         id="hole-3"
         data-name="hole"
         cx="154.69"
         cy="96.68"
         r="34.5"
         style="fill:none;stroke:#f4f4f4;stroke-width:1.5px;stroke-miterlimit:10" />
      <circle
         id="stick-2"
         data-name="stick"
         cx="154.69"
         cy="96.68"
         r="28.99"
         style="fill:none;stroke:#f4f4f4;stroke-width:1.5px;stroke-miterlimit:10" />
      <path
         id="dots-2"
         data-name="dots"
         d="m 169.59,110.82 a 0.75,0.75 0 1 1 -0.75,-0.75 0.75,0.75 0 0 1 0.75,0.75 z m -0.75,-29 a 0.75,0.75 0 0 0 0,1.5 0.75,0.75 0 0 0 0,-1.5 z m -27.54,29 a 0.75,0.75 0 0 1 -1.5,0 0.75,0.75 0 0 1 1.5,0 z m -0.75,-29 a 0.75,0.75 0 1 0 0.75,0.75 0.75,0.75 0 0 0 -0.75,-0.78 z"
         style="fill:none;stroke:#f4f4f4;stroke-width:1.5px;stroke-miterlimit:10" />
    </g>
    <g
       id="triggers">
      <path
         id="right"
         d="m 390.18,24.09 v -3.18 a 2,2 0 0 1 0.47,-1.28 l 4.75,-5.71 a 4,4 0 0 1 2.66,-1.43 c 27.65,-2.86 51.55,2.86 70.87,19 a 3,3 0 0 1 1.07,2.3 v 5.68"
         style="fill:none;stroke:#f4f4f4;stroke-width:1.5px;stroke-miterlimit:10" />
      <path
         id="left"
         d="m 198.82,24.09 v -3.18 a 2,2 0 0 0 -0.47,-1.28 l -4.75,-5.71 a 4,4 0 0 0 -2.66,-1.43 c -27.65,-2.86 -51.55,2.86 -70.87,19 a 3,3 0 0 0 -1.07,2.3 v 5.68"
         style="fill:none;stroke:#f4f4f4;stroke-width:1.5px;stroke-miterlimit:10" />
    </g>
  </g>
</svg>
