<?xml version="1.0" encoding="UTF-8" standalone="no"?>
<svg
   id="Layer_1"
   data-name="Layer 1"
   width="400"
   height="82.3"
   viewBox="0 0 400 82.3"
   version="1.1"
   sodipodi:docname="system.svg"
   inkscape:version="1.1 (c68e22c387, 2021-05-23)"
   xmlns:inkscape="http://www.inkscape.org/namespaces/inkscape"
   xmlns:sodipodi="http://sodipodi.sourceforge.net/DTD/sodipodi-0.dtd"
   xmlns="http://www.w3.org/2000/svg"
   xmlns:svg="http://www.w3.org/2000/svg">
  <defs
     id="defs15" />
  <sodipodi:namedview
     id="namedview13"
     pagecolor="#ffffff"
     bordercolor="#666666"
     borderopacity="1.0"
     inkscape:pageshadow="2"
     inkscape:pageopacity="0.0"
     inkscape:pagecheckerboard="0"
     showgrid="false"
     inkscape:zoom="2.645"
     inkscape:cx="199.81096"
     inkscape:cy="41.020794"
     inkscape:window-width="1920"
     inkscape:window-height="1027"
     inkscape:window-x="1912"
     inkscape:window-y="-8"
     inkscape:window-maximized="1"
     inkscape:current-layer="Layer_1" />
  <g
     id="g246">
    <path
       id="sphere"
       d="M9.5,66.5a40.43,40.43,0,0,1,2.1-52.8,167.17,167.17,0,0,1,19,10.5C3.9,51.6,9.5,66.5,9.5,66.5ZM41.1,16.2h0c16.2-11.7,26.3-5.8,26.3-5.8A40,40,0,0,0,41.1.7a40.52,40.52,0,0,0-26.3,9.7s10.1-6,26.3,5.8M11.8,69.1a40.25,40.25,0,0,0,58.5,0S66,51.4,40.9,32.9C18.4,49.5,11.8,69.1,11.8,69.1Zm61-2.6a40.45,40.45,0,0,0,8.8-25.3A40,40,0,0,0,70.7,13.6a167.17,167.17,0,0,0-19,10.5C78.3,51.6,72.8,66.5,72.8,66.5Z"
       style="fill: #9da0a3" />
    <g
       id="xbox360">
      <path
         id="_0"
         data-name="0"
         d="M381.16,63.15a11.24,11.24,0,0,1-8.4-3.34c-4.81-4.81-5.54-13.7-5.54-18.67,0-6.61,1.3-21.94,13.94-21.94s14,15.33,14,21.94-1.38,22-14,22Zm0-48.43c-12,0-18.84,9.62-18.84,26.5s6.85,26.42,18.84,26.42c6.85,0,11.9-2.94,15.08-8.81,3.1-5.62,3.75-12.64,3.75-17.61.09-8-1.79-26.5-18.83-26.5"
         style="fill: #9da0a3" />
      <path
         id="_6"
         data-name="6"
         d="M340.72,63.15a12.76,12.76,0,0,1-12.73-13c0-7.59,5.47-13.29,12.73-13.29a12.08,12.08,0,0,1,8.64,3.58,13.83,13.83,0,0,1,3.91,9.71,12.67,12.67,0,0,1-12.55,13Zm0-30.9a16.52,16.52,0,0,0-13.54,7.09c.57-9.54,3.67-20,14.11-20a10.92,10.92,0,0,1,11.17,9.7l.16.9h4.81l-.08-1.23c-1-8.56-7.09-13.86-16.15-13.86-15.81,0-19.08,15.66-19.08,28.87,0,15.73,6.45,24,18.51,24a17.17,17.17,0,0,0,17.53-17.61c0-10.44-7.33-17.94-17.45-17.94"
         style="fill: #9da0a3" />
      <path
         id="_3"
         data-name="3"
         d="M310.22,39.34a12.08,12.08,0,0,0,6.93-11.25,11.77,11.77,0,0,0-3.51-8.8c-2.93-2.94-7.82-4.65-13.21-4.65-9,0-15.08,5.3-16.06,13.86l-.16,1.22H289l.16-.89c1-5.88,5.38-9.71,11.17-9.71s11.83,3.1,11.83,9a8,8,0,0,1-2.37,6c-2.44,2.44-7.09,3-9.54,3h-3.42v4.73h3.42c4.49,0,8.07,1,10.28,3.1a9.4,9.4,0,0,1,2.77,7.09c0,7.26-6.53,11-13,11-4.16,0-7.66-1.3-10-3.67s-3.42-5.79-3.26-9.86V48.4h-4.89v1.06c-.24,5.38,1.22,9.94,4.24,13.12,3.18,3.35,8,5.06,13.86,5.06,10.85,0,17.86-6.12,17.86-15.49.08-6-3-10.77-8-12.81"
         style="fill: #9da0a3" />
      <path
         id="X2"
         d="M270.43,66.42,251,40l17.7-24.06H262L247.6,35.51,233.16,15.86h-6.6l17.69,24.06-19.4,26.41h6.68L247.6,44.48l16.14,21.85,6.69.09"
         style="fill: #95c343" />
      <path
         id="O"
         d="M206.09,62.18c-10.84,0-18.34-8.65-18.34-21s7.58-21,18.34-21,18.27,8.64,18.27,21S216.86,62.18,206.09,62.18Zm0-47.38C191.9,14.8,182,25.65,182,41.14s9.86,26.34,24.13,26.34c14.11,0,24.06-10.85,24.06-26.34s-10-26.34-24.06-26.34"
         style="fill: #95c343" />
      <path
         id="B"
         d="M161.41,61.12H146.65V42.77h14.84c5.63,0,12.31,1.55,12.31,8.81C173.8,59.89,166.06,61.12,161.41,61.12Zm-14.76-40h14.84c4,0,10.68,1.06,10.68,8,0,5.3-3.91,8.48-10.68,8.48H146.65Zm28.46,20.71a12.29,12.29,0,0,0-3.35-2.12,11.42,11.42,0,0,0,6-10.11c0-3.18-1.14-13.7-16.39-13.7H140.94V37.71h-6.77c-.89,1.15-2.93,3.92-3.67,5.06H141V66.42h20.47c11.09,0,18-5.63,18-14.76a12.47,12.47,0,0,0-4.4-9.79"
         style="fill: #95c343" />
      <path
         id="X"
         d="M138.25,66.42,118.84,40l17.7-24.06h-6.61L115.5,35.51,101.07,15.94H94.38L112.08,40,92.67,66.42h6.69L115.5,44.56l16.06,21.86h6.69"
         style="fill: #95c343" />
    </g>
  </g>
</svg>
