<svg id="gamecube" xmlns="http://www.w3.org/2000/svg" viewBox="0 0 589 350"><defs><style>.cls-1{fill:none;stroke:#f4f4f4;stroke-miterlimit:10;stroke-width:1.5px;}.cls-2{fill:#f4f4f4;}</style></defs><g id="body"><g id="back"><path id="right" class="cls-1" d="M477,335c-17.51,0-31.22-23.39-33.34-56.89v-.88c-3.07-28.59-7.46-49.45-13.8-65.71l-.36-.92-.66.75a33.37,33.37,0,0,0-7.51,15.5c-5,25.88-28.12,45.4-53.83,45.4h-1.12c-24.93,0-44.18-14.14-51.47-37.84-7.5-24.35.69-50.49,19.91-63.56a32.66,32.66,0,0,0,12.33-15.8l.25-.68-.72-.12c-10.61-1.7-22.81-3.14-39.57-4.67H281.94c-16.81,1.53-29,3-39.62,4.67l-.72.12.25.68a32.66,32.66,0,0,0,12.33,15.8c19.22,13.07,27.41,39.21,19.91,63.56-7.29,23.7-26.53,37.84-51.47,37.84H221.5c-25.71,0-48.85-19.52-53.83-45.4a33.29,33.29,0,0,0-7.52-15.5l-.65-.75-.36.92c-6.34,16.26-10.73,37.13-13.79,65.65v1C143.22,311.62,129.51,335,112,335c-17.27,0-35.9-22.33-35.9-58.4,0-72.1,2.78-125.5,8.28-158.74,1.1-17.11,6.92-32.71,16.84-45.17C112.09,59,127.51,50,145.81,46.42l.09,0,.08,0c41.7-21.59,91.61-33,144.35-33l4.16,0,4.18,0c37.47,0,73,5.59,105.59,16.6l.53.18,1.3-3.06a.41.41,0,0,1,.38-.25,108.91,108.91,0,0,1,66.61,28.26.44.44,0,0,1,.11.47l-1.11,2.6.4.28C491.31,71.38,503,93,504.62,117.81c5.5,33.3,8.28,86.7,8.28,158.8C512.9,312.68,494.27,335,477,335Z"/><path id="left" class="cls-1" d="M477,335c-17.51,0-31.22-23.39-33.34-56.89v-.88c-3.07-28.59-7.46-49.45-13.8-65.71l-.36-.92-.66.75a33.37,33.37,0,0,0-7.51,15.5c-5,25.88-28.12,45.4-53.83,45.4h-1.12c-24.93,0-44.18-14.14-51.47-37.84-7.5-24.35.69-50.49,19.91-63.56a32.66,32.66,0,0,0,12.33-15.8l.25-.68-.72-.12c-10.61-1.7-22.81-3.14-39.57-4.67H281.94c-16.81,1.53-29,3-39.62,4.67l-.72.12.25.68a32.66,32.66,0,0,0,12.33,15.8c19.22,13.07,27.41,39.21,19.91,63.56-7.29,23.7-26.53,37.84-51.47,37.84H221.5c-25.71,0-48.85-19.52-53.83-45.4a33.29,33.29,0,0,0-7.52-15.5l-.65-.75-.36.92c-6.34,16.26-10.73,37.13-13.79,65.65v1C143.22,311.62,129.51,335,112,335c-17.27,0-35.9-22.33-35.9-58.4,0-72.1,2.78-125.5,8.28-158.74,1.78-27.71,16.32-51.45,38.9-63.56l.25-.14.06-.28a33.6,33.6,0,0,1,52.34-21.08l.26.18.3-.11c34.82-13,73.12-19.53,113.84-19.53l4.16,0,4.18,0c52.74,0,102.65,11.42,144.35,33l.08,0,.09,0C461.49,50,476.91,59,487.78,72.7c9.92,12.46,15.74,28.06,16.84,45.11,5.5,33.3,8.28,86.7,8.28,158.8C512.9,312.68,494.27,335,477,335Z"/></g><g id="front"><g id="left-2" data-name="left"><path class="cls-2" d="M164.15,44.08v1.5c21.92,0,42.15,9.72,57,27.36,15.36,18.29,22.2,42.54,18.29,64.86a33.86,33.86,0,0,0,14.26,33.79,50.19,50.19,0,0,1,20,28.08,61,61,0,0,1-.4,34.48,53.27,53.27,0,0,1-17.49,26.27c-9.11,7.26-20.26,10.93-33.12,10.93H221.5a53,53,0,0,1-34.64-13.14,56,56,0,0,1-18.31-31.53,34.06,34.06,0,0,0-25.83-26.81,70.8,70.8,0,0,1-45.51-32.42,84.71,84.71,0,0,1-11.67-52.83c1.87-18.42,9.58-35.24,21.7-47.36,13.69-13.69,32.69-21.18,54.94-21.66.66,0,1.31,0,2,0v-1.5m0,0-2,0C62.87,46.26,59.27,182.36,142.38,201.35A32.44,32.44,0,0,1,167.08,227c4.84,25.18,27.15,45.89,54.42,45.89h1.12c58.15,0,72.07-75.18,31.9-102.5a32.26,32.26,0,0,1-13.63-32.29c8-45.4-27.53-94-76.74-94Z"/></g><g id="right-2" data-name="right"><path class="cls-2" d="M424.85,45.58l2,0c22.24.48,41.24,8,54.93,21.66,12.12,12.12,19.83,28.94,21.7,47.36a84.71,84.71,0,0,1-11.67,52.83,70.8,70.8,0,0,1-45.51,32.42,34.06,34.06,0,0,0-25.83,26.81,56,56,0,0,1-18.31,31.53,53,53,0,0,1-34.64,13.14h-1.12c-12.86,0-24-3.67-33.12-10.93a53.27,53.27,0,0,1-17.49-26.27,61,61,0,0,1-.4-34.48,50.19,50.19,0,0,1,20-28.08,33.86,33.86,0,0,0,14.26-33.79c-3.91-22.33,2.93-46.58,18.3-64.87,14.81-17.63,35-27.35,57-27.35m0-1.5c-49.2,0-84.69,48.58-76.74,94a32.26,32.26,0,0,1-13.63,32.29c-40.17,27.32-26.25,102.5,31.9,102.5h1.12c27.27,0,49.58-20.71,54.42-45.89a32.44,32.44,0,0,1,24.7-25.62c83.11-19,79.51-155.09-19.76-157.24l-2,0Z"/></g></g></g><g id="joystick"><circle id="back-2" data-name="back" class="cls-1" cx="159.85" cy="118.57" r="50.5"/><g id="outside"><path class="cls-2" d="M160.89,78.7l27.9,12.41,10.94,28.51-12.42,27.89-28.5,10.94L130.92,146,120,117.53l12.42-27.89,28.5-10.94m.05-1.63L131.27,88.46l-12.92,29,11.39,29.66,29,12.92,29.67-11.38,12.92-29L190,90l-29-12.93Z"/></g><g id="inside"><path class="cls-2" d="M160.75,84.2,184.8,94.9l9.43,24.57-10.71,24.05L159,153l-24-10.7-9.44-24.58,10.71-24,24.57-9.43m0-1.63-25.73,9.88-11.21,25.18,9.88,25.73,25.18,11.21,25.73-9.87,11.21-25.18L186,93.78,160.79,82.57Z"/></g><g id="center"><g id="_5" data-name="5"><path class="cls-2" d="M159.85,93.53a25,25,0,1,1-25,25,25.07,25.07,0,0,1,25-25m0-1.5a26.55,26.55,0,1,0,26.54,26.54A26.54,26.54,0,0,0,159.85,92Z"/></g><g id="_4" data-name="4"><path class="cls-2" d="M159.85,97.78a20.8,20.8,0,1,1-20.79,20.79,20.82,20.82,0,0,1,20.79-20.79m0-1.5a22.3,22.3,0,1,0,22.3,22.29,22.29,22.29,0,0,0-22.3-22.29Z"/></g><g id="_3" data-name="3"><path class="cls-2" d="M159.85,102.24a16.34,16.34,0,1,1-16.34,16.33,16.36,16.36,0,0,1,16.34-16.33m0-1.5a17.84,17.84,0,1,0,17.84,17.83,17.83,17.83,0,0,0-17.84-17.83Z"/></g><g id="_2" data-name="2"><path class="cls-2" d="M159.85,106.7A11.88,11.88,0,1,1,148,118.57a11.89,11.89,0,0,1,11.88-11.87m0-1.5a13.38,13.38,0,1,0,13.38,13.37,13.38,13.38,0,0,0-13.38-13.37Z"/></g><g id="_1" data-name="1"><path class="cls-2" d="M159.85,112.05a6.53,6.53,0,1,1-6.53,6.52,6.54,6.54,0,0,1,6.53-6.52m0-1.5a8,8,0,1,0,8,8,8,8,0,0,0-8-8Z"/></g><g id="_0" data-name="0"><path class="cls-2" d="M159.85,116.06a2.52,2.52,0,1,1-2.51,2.51,2.51,2.51,0,0,1,2.51-2.51m0-1.5a4,4,0,1,0,4,4,4,4,0,0,0-4-4Z"/></g></g></g><g id="d-pad"><circle id="back-3" data-name="back" class="cls-1" cx="221.45" cy="215.21" r="36.64"/><path id="outside_cross" data-name="outside cross" class="cls-1" d="M215.63,246.21a5.72,5.72,0,0,1-5.71-5.72V226.74H196.16a5.72,5.72,0,0,1-5.71-5.72V209.39a5.71,5.71,0,0,1,5.71-5.71h13.76V189.92a5.71,5.71,0,0,1,5.71-5.71h11.63a5.72,5.72,0,0,1,5.72,5.71v13.76h13.75a5.72,5.72,0,0,1,5.72,5.71V221a5.73,5.73,0,0,1-5.72,5.72H233v13.75a5.73,5.73,0,0,1-5.72,5.72Z"/><path id="inside_cross" data-name="inside cross" class="cls-1" d="M246.16,206.73H229.92V190.5a2.79,2.79,0,0,0-2.79-2.79H215.76A2.8,2.8,0,0,0,213,190.5v16.23H196.74a2.8,2.8,0,0,0-2.79,2.79v11.37a2.79,2.79,0,0,0,2.79,2.79H213v16.24a2.8,2.8,0,0,0,2.79,2.79h11.37a2.8,2.8,0,0,0,2.79-2.79V223.68h16.24a2.8,2.8,0,0,0,2.79-2.79V209.52A2.8,2.8,0,0,0,246.16,206.73Z"/><circle id="center-2" data-name="center" class="cls-1" cx="221.45" cy="215.21" r="6.28"/><path id="arrows" class="cls-1" d="M226.64,200.71H216.25l5.2-9Zm0,29H216.25l5.2,9ZM207,210V220.4l-9-5.19Zm29,0V220.4l9-5.19Z"/></g><g id="c-stick"><g id="outside-2" data-name="outside"><path class="cls-2" d="M367.09,177.41l26.85,12,10.52,27.43-11.95,26.84-27.43,10.53-26.84-11.95-10.53-27.43,12-26.84,27.43-10.53m.05-1.63-28.6,11-12.45,28,11,28.59,28,12.45,28.59-11,12.46-28-11-28.59-28-12.46Z"/></g><g id="inside-2" data-name="inside"><path class="cls-2" d="M367,182.91l23,10.24,9,23.5-10.23,23-23.5,9-23-10.24-9-23.5,10.24-23,23.5-9m0-1.63-24.66,9.47-10.74,24.13,9.46,24.66,24.13,10.74,24.66-9.46,10.75-24.13L391.12,192,367,181.28Z"/></g><circle id="C" class="cls-1" cx="366.09" cy="215.78" r="19"/></g><g id="start"><circle id="start-2" data-name="start" class="cls-1" cx="294.5" cy="122.27" r="11.72"/></g><g id="buttons"><path id="all" class="cls-1" d="M484.48,125.21a11.57,11.57,0,0,1-8.9,8.57h0A11.8,11.8,0,0,1,472,134a49,49,0,0,1-81.46,18.95,16.8,16.8,0,1,1-14.88-24.59,18,18,0,0,1,1.81.1,49.06,49.06,0,0,1,12.9-44,12,12,0,0,1-1.22-2.69h0a11.58,11.58,0,0,1,3.18-11.94,37.81,37.81,0,0,1,32.42-9.91A11.55,11.55,0,0,1,434.1,68h0a11.56,11.56,0,0,1,.46,2.43,49,49,0,0,1,29.53,17.94,12,12,0,0,1,1.73-.52A11.57,11.57,0,0,1,477.44,92,37.85,37.85,0,0,1,484.48,125.21Z"/><circle id="A" class="cls-1" cx="425.52" cy="118.57" r="26.54"/><circle id="B" class="cls-1" cx="375.7" cy="145.12" r="16.8"/><path id="X" class="cls-1" d="M461.5,121.85a36.46,36.46,0,0,0-3.7-17.39,11.7,11.7,0,0,1,8-16.62h0A11.57,11.57,0,0,1,477.44,92a37.85,37.85,0,0,1,7,33.17,11.57,11.57,0,0,1-8.9,8.57h0A11.7,11.7,0,0,1,461.5,121.85Z"/><path id="Y" class="cls-1" d="M423.45,83.06a36.43,36.43,0,0,0-17,5.2,11.7,11.7,0,0,1-17.26-6.54h0a11.58,11.58,0,0,1,3.18-11.94,37.81,37.81,0,0,1,32.42-9.91A11.55,11.55,0,0,1,434.1,68h0A11.69,11.69,0,0,1,423.45,83.06Z"/></g></svg>