<svg id="gamecube" xmlns="http://www.w3.org/2000/svg" xmlns:xlink="http://www.w3.org/1999/xlink" width="227.4" height="82.3" viewBox="0 0 227.4 82.3">
  <defs>
    <linearGradient id="linear-gradient" x1="-149.97" y1="998.33" x2="-138.76" y2="991.97" gradientTransform="translate(199.29 -979.53)" gradientUnits="userSpaceOnUse">
      <stop offset="0" stop-color="#3956e7"/>
      <stop offset="1" stop-color="#3f53c5"/>
    </linearGradient>
    <linearGradient id="linear-gradient-2" x1="-115.55" y1="1027.7" x2="-99.61" y2="1037.68" gradientTransform="translate(153.39 -1018.73)" gradientUnits="userSpaceOnUse">
      <stop offset="0" stop-color="#a7c2fd"/>
      <stop offset="1" stop-color="#7990f4"/>
    </linearGradient>
    <linearGradient id="linear-gradient-3" x1="-27.88" y1="981.84" x2="-3.6" y2="966.65" gradientTransform="translate(36.36 -957.38)" gradientUnits="userSpaceOnUse">
      <stop offset="0" stop-color="#4c6fcd"/>
      <stop offset="1" stop-color="#4166cd"/>
    </linearGradient>
    <linearGradient id="linear-gradient-4" x1="-116.98" y1="836.55" x2="-93.48" y2="823" gradientTransform="translate(155.25 -763.5)" gradientUnits="userSpaceOnUse">
      <stop offset="0" stop-color="#e6edf8"/>
      <stop offset="1" stop-color="#6b8de2"/>
    </linearGradient>
    <linearGradient id="linear-gradient-5" x1="-195.36" y1="932.95" x2="-195.38" y2="948.4" gradientTransform="translate(259.92 -892.17)" gradientUnits="userSpaceOnUse">
      <stop offset="0" stop-color="#7998f0"/>
      <stop offset="1" stop-color="#c2d6ff"/>
    </linearGradient>
    <linearGradient id="linear-gradient-6" x1="-109.32" y1="931.57" x2="-73.73" y2="952.12" gradientTransform="translate(145 -890.31)" gradientUnits="userSpaceOnUse">
      <stop offset="0" stop-color="#1e54cf"/>
      <stop offset="0.72" stop-color="#5e89e8"/>
      <stop offset="0.96" stop-color="#90abe2"/>
      <stop offset="1" stop-color="#90abe2"/>
    </linearGradient>
    <linearGradient id="linear-gradient-7" x1="-22.88" y1="974.63" x2="-22.99" y2="1003.04" gradientTransform="translate(29.68 -947.83)" gradientUnits="userSpaceOnUse">
      <stop offset="0" stop-color="#4c6fcd"/>
      <stop offset="1" stop-color="#304dba"/>
    </linearGradient>
    <linearGradient id="linear-gradient-8" x1="-30.63" y1="877.05" x2="-7.13" y2="890.8" gradientTransform="translate(39.98 -817.55)" gradientUnits="userSpaceOnUse">
      <stop offset="0" stop-color="#fbfcfd"/>
      <stop offset="1" stop-color="#dfe8f4"/>
    </linearGradient>
    <radialGradient id="radial-gradient" cx="-983.56" cy="988.09" r="41.38" gradientTransform="translate(-988.01 -921.55) rotate(-90)" gradientUnits="userSpaceOnUse">
      <stop offset="0" stop-color="#5175e9"/>
      <stop offset="1" stop-color="#aedafc"/>
    </radialGradient>
    <radialGradient id="radial-gradient-2" cx="63.48" cy="-4.56" r="41.38" gradientTransform="translate(31.19 -63.48) rotate(90)" gradientUnits="userSpaceOnUse">
      <stop offset="0" stop-color="#a7c2fd"/>
      <stop offset="1" stop-color="#fcffff"/>
    </radialGradient>
  </defs>
  <g id="top_face_edges" data-name="top face edges">
    <path id="right_edge" data-name="right edge" d="M51.8,11V23.8l10.9-6.4V15.7Z" style="fill: url(#linear-gradient)"/>
    <path id="center_edge" data-name="center edge" d="M51.8,11,36,1.8l-.2,12.6,16,9.4Z" style="fill: url(#linear-gradient-2)"/>
    <path id="left_edge" data-name="left edge" d="M36,1.8.2,22.5l11,6.3L35.8,14.5Z" style="fill: url(#linear-gradient-3)"/>
  </g>
  <g id="right_face" data-name="right face">
    <path id="bottom_edge" data-name="bottom edge" d="M59.1,54.9,35.6,68.5V80.7L70,60.9Z" style="fill: url(#linear-gradient-4)"/>
    <path id="right_edge-2" data-name="right edge" d="M70,33.9,59.1,40V55L70,60.9Z" style="fill: url(#linear-gradient-5)"/>
    <path id="face" d="M71.4,20.7,35.6,41.4V60.5l16.7-9.6V45.4l8.2-4.6v15L35.6,70.1V82.4L71.4,61.7Z" style="fill: url(#linear-gradient-6)"/>
  </g>
  <g id="left_face" data-name="left face">
    <path id="left_edge-2" data-name="left edge" d="M1.3,60.6l10.9-4.5V27.8L1.3,21.6Z" style="fill: url(#linear-gradient-7)"/>
    <path id="bottom_edge-2" data-name="bottom edge" d="M1.3,61.2,35.6,80.9V68.6L12.1,54.7Z" style="fill: url(#linear-gradient-8)"/>
    <path id="face-2" data-name="face" d="M.1,62,35.6,82.3V70.1L10.9,55.5V26.8L.1,20.6V62m35.5-1.5V41.4L19.1,31.8V51Z" style="fill: url(#radial-gradient)"/>
  </g>
  <path id="top_face" data-name="top face" d="M71.1,20.8l-1-.6L51.3,31.1l-15.7-9L19,31.8l16.7,9.6L71.1,20.8m-8.5-5.2L35.8,0,0,20.6l11,6.3L35.6,12.6l16,9.4Z" style="fill: url(#radial-gradient-2)"/>
  <path id="gamecube-2" data-name="gamecube" d="M153.8,40.6V50c0,2.1,1.7,3.2,3.9,3.2H168c2.1,0,3.5-1.1,3.5-3.2V46.3h-4.2v3h-8.9V41.1h8.9v2.7h4.2V40.6c0-2.1-1.3-3.2-3.5-3.2H157.7C155.5,37.4,153.8,38.5,153.8,40.6ZM173,37.4V50c0,2.1,1.7,3.2,3.9,3.2h10.3c2.1,0,3.5-1.1,3.5-3.2V37.4h-4.2v12h-8.9v-12Zm38.1,0V53.3h16.2V49.5h-12V46.7h6.9V43.3h-6.9V40.9h12V37.3H211.1Zm-76.2,0V53.3h16.2V49.5h-12V46.7H146V43.3h-6.9V40.9h12V37.3H134.9ZM92.2,53.3h11.5V49.5h-5l4.5-7.4,6.2,11.2h7.1V45.2l4.6,8.1h3.3l4.6-8.1v8.1h4.1V37.4h-4l-6.4,10.9-6.4-10.9h-4V50.2L105,37.4h-3.8Zm-18-12.7V50c0,2.1,1.7,3.2,3.9,3.2H89.5c2.1,0,3.5-1.1,3.5-3.2V43.6H83v3.6h5.6v2.2H78.8V41.2h14V37.5H78.1C76,37.4,74.2,38.5,74.2,40.6Zm118.2-3.2V53.2H206a3.61,3.61,0,0,0,3.6-3.4V48a3.82,3.82,0,0,0-1.4-2.8,3.37,3.37,0,0,0,1.2-2.6V40.4c0-1.9-1.7-3-3.6-3H192.4m4.4,6V40.9h8a.56.56,0,0,1,.6.7v1.2a.75.75,0,0,1-.6.7l-8-.1m0,6.1V46.7h8c.4,0,.6.3.6.7v1.5a.75.75,0,0,1-.6.7h-8Z"/>
  <path id="nintendo" d="M99.8,21.1h2.6V33.3H99.8Zm-15.2,0v7.4l-3.8-7.4H77.6V33.3H80V24.2l4.6,9.1H87V21.1Zm37.4,0v7.4l-3.8-7.4H115V33.3h2.4V24.2l4.6,9.1h2.4V21.1Zm59.3,0v7.4l-3.8-7.4h-3.2V33.3h2.4V24.2l4.6,9.1h2.4V21.1Zm-42.9,2V33.3H141V23.1h3.8v-2H134.6v2Zm76.2,1.2v5.9a3.38,3.38,0,0,0,3.6,3.2h2.5a3.44,3.44,0,0,0,3.6-3.2V24.3a3.38,3.38,0,0,0-3.6-3.2h-2.5a3.38,3.38,0,0,0-3.6,3.2m2.2.2a1.24,1.24,0,0,1,1.1-1.4h2.7a1.37,1.37,0,0,1,1.4,1.4v5.4a1.37,1.37,0,0,1-1.4,1.4h-2.4a1.37,1.37,0,0,1-1.4-1.4h0Zm-22-3.4V33.3h5.9a3.44,3.44,0,0,0,3.6-3.2V24.2a3.38,3.38,0,0,0-3.6-3.2h-5.9m2.4,10.4V23.2h3.4a1.37,1.37,0,0,1,1.4,1.4V30a1.37,1.37,0,0,1-1.4,1.4Zm-42.9-7.1v5.9a3.38,3.38,0,0,0,3.6,3.2h5.4v-2h-5.4a1.37,1.37,0,0,1-1.4-1.4h0V28h6.8V26h-6.8V24.6a1.24,1.24,0,0,1,1.1-1.4h5.7v-2h-5.4A3.24,3.24,0,0,0,154.3,24.3Z" style="fill: #c2d3da"/>
</svg>
