<svg id="Layer_1" data-name="Layer 1" xmlns="http://www.w3.org/2000/svg" xmlns:xlink="http://www.w3.org/1999/xlink" viewBox="0 0 227.36 82.35"><defs><style>.cls-1{fill:url(#linear-gradient);}.cls-2{fill:url(#linear-gradient-2);}.cls-3{fill:url(#linear-gradient-3);}.cls-4{fill:url(#linear-gradient-4);}.cls-5{fill:url(#linear-gradient-5);}.cls-6{fill:url(#linear-gradient-6);}.cls-7{fill:url(#linear-gradient-7);}.cls-8{fill:url(#radial-gradient);}.cls-9{fill:url(#radial-gradient-2);}.cls-10{fill:url(#linear-gradient-8);}.cls-11{fill:#c2d3da;}</style><linearGradient id="linear-gradient" x1="-115.57" y1="761.73" x2="-99.63" y2="771.71" gradientTransform="translate(153.39 -752.73)" gradientUnits="userSpaceOnUse"><stop offset="0" stop-color="#a7c2fd"/><stop offset="1" stop-color="#7990f4"/></linearGradient><linearGradient id="linear-gradient-2" x1="-27.92" y1="715.78" x2="-3.64" y2="700.59" gradientTransform="translate(36.36 -691.38)" gradientUnits="userSpaceOnUse"><stop offset="0" stop-color="#4c6fcd"/><stop offset="1" stop-color="#4166cd"/></linearGradient><linearGradient id="linear-gradient-3" x1="-22.92" y1="708.63" x2="-23.03" y2="737.04" gradientTransform="translate(29.68 -681.83)" gradientUnits="userSpaceOnUse"><stop offset="0" stop-color="#4c6fcd"/><stop offset="1" stop-color="#304dba"/></linearGradient><linearGradient id="linear-gradient-4" x1="-149.94" y1="732.38" x2="-138.73" y2="726.02" gradientTransform="translate(199.29 -713.53)" gradientUnits="userSpaceOnUse"><stop offset="0" stop-color="#3956e7"/><stop offset="1" stop-color="#3f53c5"/></linearGradient><linearGradient id="linear-gradient-5" x1="-30.63" y1="611.06" x2="-7.13" y2="624.81" gradientTransform="translate(39.98 -551.55)" gradientUnits="userSpaceOnUse"><stop offset="0" stop-color="#fbfcfd"/><stop offset="1" stop-color="#dfe8f4"/></linearGradient><linearGradient id="linear-gradient-6" x1="-116.96" y1="570.58" x2="-93.46" y2="557.03" gradientTransform="translate(155.25 -497.5)" gradientUnits="userSpaceOnUse"><stop offset="0" stop-color="#e6edf8"/><stop offset="1" stop-color="#6b8de2"/></linearGradient><linearGradient id="linear-gradient-7" x1="-195.35" y1="666.95" x2="-195.37" y2="682.4" gradientTransform="translate(259.92 -626.17)" gradientUnits="userSpaceOnUse"><stop offset="0" stop-color="#7998f0"/><stop offset="1" stop-color="#c2d6ff"/></linearGradient><radialGradient id="radial-gradient" cx="157.48" cy="355.44" r="41.38" gradientTransform="translate(391.19 -157.48) rotate(90)" gradientUnits="userSpaceOnUse"><stop offset="0" stop-color="#a7c2fd"/><stop offset="1" stop-color="#fcffff"/></radialGradient><radialGradient id="radial-gradient-2" cx="-357.56" cy="628.09" r="41.38" gradientTransform="translate(-628.01 -295.55) rotate(-90)" gradientUnits="userSpaceOnUse"><stop offset="0" stop-color="#5175e9"/><stop offset="1" stop-color="#aedafc"/></radialGradient><linearGradient id="linear-gradient-8" x1="-109.28" y1="665.55" x2="-73.68" y2="686.11" gradientTransform="translate(145 -624.31)" gradientUnits="userSpaceOnUse"><stop offset="0" stop-color="#1e54cf"/><stop offset="0.72" stop-color="#5e89e8"/><stop offset="0.96" stop-color="#90abe2"/><stop offset="1" stop-color="#90abe2"/></linearGradient></defs><path class="cls-1" d="M51.78,11,36,1.81l-.19,12.61,16,9.42Z"/><path class="cls-2" d="M36,1.81.2,22.45l11,6.29L35.76,14.42Z"/><path class="cls-3" d="M1.29,60.6l10.85-4.46V27.82L1.29,21.64Z"/><path class="cls-4" d="M51.83,11V23.84l10.92-6.42V15.71Z"/><path class="cls-5" d="M1.29,61.2,35.64,80.86V68.59L12.14,54.74Z"/><path class="cls-6" d="M59.14,54.94,35.64,68.49V80.73L70,60.86Z"/><path class="cls-7" d="M70,33.94,59.14,40v15L70,60.86Z"/><path class="cls-8" d="M71.13,20.82l-1-.61L51.27,31.13l-15.66-9L19,31.75l16.7,9.64L71.13,20.82m-8.51-5.17L35.75,0,0,20.64l11,6.29L35.56,12.61l16.06,9.44Z"/><path class="cls-9" d="M.09,62,35.64,82.35V70.1L10.93,55.54V26.82L.09,20.63V62m35.55-1.55V41.38L19.17,31.74V51Z"/><path class="cls-10" d="M71.39,20.69,35.64,41.38V60.46L52.31,50.9V45.39l8.23-4.62v15L35.64,70.1V82.35L71.39,61.66Z"/><path class="cls-11" d="M99.78,21.12h2.6V33.35h-2.6Z"/><path class="cls-11" d="M84.55,21.12v7.37l-3.81-7.37H77.53V33.35h2.4V24.23l4.62,9.12H87V21.12Z"/><path class="cls-11" d="M122,21.12v7.37l-3.81-7.37H115V33.35h2.4V24.23L122,33.35h2.41V21.12Z"/><path class="cls-11" d="M181.34,21.12v7.37l-3.81-7.37h-3.2V33.35h2.4V24.23l4.61,9.12h2.41V21.12Z"/><path class="cls-11" d="M138.45,23.13V33.35h2.61V23.13h3.81v-2H134.65v2Z"/><path class="cls-11" d="M214.61,24.29v5.89a3.4,3.4,0,0,0,3.57,3.17h2.48a3.4,3.4,0,0,0,3.57-3.17V24.29a3.4,3.4,0,0,0-3.57-3.17h-2.48a3.4,3.4,0,0,0-3.57,3.17m2.2.24a1.24,1.24,0,0,1,1.21-1.4h2.6a1.4,1.4,0,0,1,1.4,1.4v5.41a1.41,1.41,0,0,1-1.4,1.41h-2.4a1.41,1.41,0,0,1-1.41-1.41Z"/><path class="cls-11" d="M194.77,21.12V33.35h5.85a3.4,3.4,0,0,0,3.57-3.17V24.29a3.4,3.4,0,0,0-3.57-3.17h-5.85m2.4,10.23V23.13h3.41a1.4,1.4,0,0,1,1.4,1.4v5.41a1.41,1.41,0,0,1-1.4,1.41Z"/><path class="cls-11" d="M154.29,24.29v5.89a3.4,3.4,0,0,0,3.57,3.17h5.44v-2h-5.4a1.41,1.41,0,0,1-1.41-1.41v-2h6.81v-2h-6.81v-1.4a1.24,1.24,0,0,1,1.2-1.4h5.61v-2h-5.44A3.4,3.4,0,0,0,154.29,24.29Z"/><path d="M153.79,40.59V50c0,2.12,1.73,3.23,3.86,3.23h10.26c2.14,0,3.47-1.11,3.47-3.23V46.29h-4.22v3h-8.85V41.1h8.85v2.65h4.22V40.59c0-2.11-1.33-3.23-3.47-3.23H157.65C155.52,37.36,153.79,38.48,153.79,40.59Z"/><path d="M173,37.36V50c0,2.12,1.73,3.23,3.86,3.23h10.26c2.14,0,3.47-1.11,3.47-3.23V37.36H186.4v12h-8.85v-12Z"/><path d="M211.07,37.36V53.27h16.16V49.5h-12V46.71h6.91V43.35h-6.91V40.93h12V37.36Z"/><path d="M134.92,37.36V53.27h16.16V49.5h-12V46.71H146V43.35h-6.92V40.93h12V37.36Z"/><path d="M92.17,53.27h11.51V49.5h-5l4.52-7.42,6.24,11.19h7.14V45.18l4.6,8.09h3.29l4.6-8.09v8.09h4.13l0-15.91h-4l-6.42,10.93L116.4,37.36h-4V50.19l-7.29-12.83h-3.75Z"/><path d="M74.23,40.59V50c0,2.12,1.73,3.23,3.86,3.23l11.42,0C91.64,53.23,93,52.11,93,50V43.58h-10v3.6H88.6v2.15H78.75V41.1h14V37.36H78.09C76,37.36,74.23,38.48,74.23,40.59Z"/><path d="M192.43,37.36V53.19H206a3.6,3.6,0,0,0,3.6-3.4V48a3.68,3.68,0,0,0-1.43-2.79,3.61,3.61,0,0,0,1.23-2.61V40.36c0-1.86-1.74-3-3.6-3H192.43m4.34,6V40.91h8a.66.66,0,0,1,.65.66v1.15a.65.65,0,0,1-.65.65h-8m0,6.15V46.73h8a.65.65,0,0,1,.65.65v1.49a.65.65,0,0,1-.65.65Z"/></svg>