<?xml version="1.0" encoding="UTF-8" standalone="no"?>
<svg
   id="_3DS"
   data-name="3DS"
   width="589"
   height="350"
   viewBox="0 0 589 350"
   version="1.1"
   sodipodi:docname="controller.svg"
   inkscape:version="1.1 (c68e22c387, 2021-05-23)"
   xmlns:inkscape="http://www.inkscape.org/namespaces/inkscape"
   xmlns:sodipodi="http://sodipodi.sourceforge.net/DTD/sodipodi-0.dtd"
   xmlns="http://www.w3.org/2000/svg"
   xmlns:svg="http://www.w3.org/2000/svg">
  <defs
     id="defs41" />
  <sodipodi:namedview
     id="namedview39"
     pagecolor="#ffffff"
     bordercolor="#666666"
     borderopacity="1.0"
     inkscape:pageshadow="2"
     inkscape:pageopacity="0.0"
     inkscape:pagecheckerboard="0"
     showgrid="false"
     inkscape:zoom="1.7962649"
     inkscape:cx="294.22164"
     inkscape:cy="175.08554"
     inkscape:window-width="1920"
     inkscape:window-height="1027"
     inkscape:window-x="1912"
     inkscape:window-y="-8"
     inkscape:window-maximized="1"
     inkscape:current-layer="_3DS" />
  <g
     id="g78"
     inkscape:label="3ds">
    <g
       id="body">
      <path
         id="bottom"
         d="m 149.5,337.13 a 10,10 0 0 1 -10,-10 v 0 -149 h 2 v 149 a 8,8 0 0 0 8,8 h 290 a 8,8 0 0 0 8,-8 v 0 -149 h 2 v 149 a 10,10 0 0 1 -10,10 z"
         style="fill:#f4f4f4" />
      <path
         id="hinge"
         d="m 151.17,189.46 v 0 -2 h 286.67 a 9.67,9.67 0 0 0 9.66,-9.66 v 0 a 9.68,9.68 0 0 0 -9.66,-9.67 H 151.17 a 9.68,9.68 0 0 0 -9.67,9.67 v 0 a 9.68,9.68 0 0 0 9.67,9.66 v 0 2 A 11.66,11.66 0 0 1 139.5,177.8 v 0 a 11.66,11.66 0 0 1 11.67,-11.67 h 286.67 a 11.66,11.66 0 0 1 11.66,11.67 v 0 a 11.66,11.66 0 0 1 -11.66,11.66 z"
         style="fill:#f4f4f4" />
      <path
         id="top"
         d="m 410,188.46 v -25.33 h 37.5 v -138 a 8,8 0 0 0 -8,-8 h -290 a 8,8 0 0 0 -8,8 v 0 138 H 179 v 24.75 h -2 v -22.75 h -37.5 v -140 a 10,10 0 0 1 10,-10 h 290 a 10,10 0 0 1 10,10 v 0 140 H 412 v 23.33 z"
         style="fill:#f4f4f4" />
    </g>
    <g
       id="screens">
      <path
         id="bottom-2"
         data-name="bottom"
         d="M 209.28,327.18 V 191.57 a 4.19,4.19 0 0 1 4.19,-4.19 h 162.06 a 4.19,4.19 0 0 1 4.19,4.19 v 0 135.61 a 4.19,4.19 0 0 1 -4.19,4.2 H 213.47 a 4.19,4.19 0 0 1 -4.19,-4.2 z m 2.09,-135.61 v 135.61 a 2.11,2.11 0 0 0 2.1,2.1 h 162.06 a 2.09,2.09 0 0 0 2.09,-2.1 v 0 -135.61 a 2.09,2.09 0 0 0 -2.09,-2.09 H 213.47 a 2.1,2.1 0 0 0 -2.1,2.09 z m 8,120.89 a 2.09,2.09 0 0 1 -2.09,-2.09 v 0 -112 a 2.09,2.09 0 0 1 2.09,-2.1 h 150.26 a 2.09,2.09 0 0 1 2.09,2.1 v 0 112 a 2.09,2.09 0 0 1 -2.09,2.09 z m 0,-114.07 v 112 h 150.26 v -112 z"
         style="fill:#f4f4f4" />
      <path
         id="top-2"
         data-name="top"
         d="m 197.17,160.8 a 5,5 0 0 1 -5,-5 v 0 -128.34 a 5,5 0 0 1 5,-5 h 194.67 a 5,5 0 0 1 5,5 v 0 128.33 a 5,5 0 0 1 -5,5 H 197.17 Z m -3,-133.34 v 128.33 a 3,3 0 0 0 3,3 h 194.67 a 3,3 0 0 0 3,-3 v 0 -128.33 a 3,3 0 0 0 -3,-3 H 197.17 a 3,3 0 0 0 -3,3 z m 8.33,126.34 a 3,3 0 0 1 -3,-3 v 0 -118.34 a 3,3 0 0 1 3,-3 h 184 a 3,3 0 0 1 3,3 v 0 118.34 a 3,3 0 0 1 -3,3 z m -1,-121.34 v 118.33 a 1,1 0 0 0 1,1 h 184 a 1,1 0 0 0 1,-1 v 0 -118.33 a 1,1 0 0 0 -1,-1 h -184 a 1,1 0 0 0 -1,1 z"
         style="fill:#f4f4f4" />
    </g>
    <path
       id="d-pad"
       d="m 166.38,297.36 a 1.8,1.8 0 0 1 -1.81,-1.8 v 0 -10.9 h -10.9 a 1.81,1.81 0 0 1 -1.81,-1.81 v 0 -12 a 1.81,1.81 0 0 1 1.81,-1.8 h 10.9 v -10.89 a 1.81,1.81 0 0 1 1.81,-1.8 h 12 a 1.81,1.81 0 0 1 1.81,1.8 v 0 10.91 h 10.9 a 1.81,1.81 0 0 1 1.81,1.8 v 0 12 a 1.81,1.81 0 0 1 -1.81,1.81 h -10.9 v 10.9 a 1.8,1.8 0 0 1 -1.81,1.8 h -12 z m 0,-1.8 h 12 v -11 a 1.77,1.77 0 0 1 0.32,-1.08 v 0 a 1.6,1.6 0 0 1 1.36,-0.61 h 11 v -12 h -11 a 1.76,1.76 0 0 1 -1.19,-0.41 v 0 a 1.76,1.76 0 0 1 -0.54,-1.34 v 0 -11 h -12 v 11 a 1.75,1.75 0 0 1 -0.38,1.14 v 0 a 1.64,1.64 0 0 1 -1.32,0.57 h -11 v 12 h 10.92 a 2,2 0 0 1 1.21,0.31 v 0 a 1.58,1.58 0 0 1 0.58,1.33 v 0 11.07 z"
       style="fill:#f4f4f4" />
    <path
       d="M 172,211 A 14.25,14.25 0 1 0 186.25,225.25 14.26,14.26 0 0 0 172,211 Z m 12.56,14.25 A 12.56,12.56 0 1 1 172,212.64 12.57,12.57 0 0 1 184.53,225.2 Z"
       style="fill:#f4f4f4"
       id="path10" />
    <path
       id="jotstick"
       d="M 172,246.44 A 21.24,21.24 0 1 1 193.24,225.2 21.27,21.27 0 0 1 172,246.44 Z m 0,-40.67 A 19.43,19.43 0 1 0 191.4,225.2 19.46,19.46 0 0 0 172,205.77 Z"
       style="fill:#f4f4f4" />
    <g
       id="bumpers">
      <g
         id="bottom-3"
         data-name="bottom">
        <path
           id="right"
           d="m 416,154 a 2.4,2.4 0 0 1 -2.4,-2.39 v 0 -4.21 A 2.41,2.41 0 0 1 416,145 h 4.2 a 2.4,2.4 0 0 1 2.4,2.4 v 0 4.21 a 2.39,2.39 0 0 1 -2.4,2.39 z m -0.8,-6.6 v 4.21 a 0.79,0.79 0 0 0 0.8,0.79 h 4.2 a 0.79,0.79 0 0 0 0.8,-0.79 v 0 -4.21 a 0.8,0.8 0 0 0 -0.8,-0.8 H 416 a 0.8,0.8 0 0 0 -0.8,0.8 z"
           style="fill:#f4f4f4" />
        <path
           id="left"
           d="m 168.81,154 a 2.4,2.4 0 0 1 -2.4,-2.4 v 0 -4.2 a 2.39,2.39 0 0 1 2.4,-2.4 H 173 a 2.4,2.4 0 0 1 2.4,2.4 v 0 4.2 A 2.41,2.41 0 0 1 173,154 h -4.2 z m -0.8,-6.61 v 4.21 a 0.79,0.79 0 0 0 0.8,0.79 H 173 a 0.81,0.81 0 0 0 0.8,-0.79 v 0 -4.2 a 0.79,0.79 0 0 0 -0.8,-0.79 h -4.2 a 0.79,0.79 0 0 0 -0.8,0.79 z"
           style="fill:#f4f4f4" />
      </g>
      <g
         id="top-3"
         data-name="top">
        <path
           id="right-2"
           data-name="right"
           d="m 416,37.5 a 2.4,2.4 0 0 1 -2.4,-2.4 v 0 -4.2 a 2.41,2.41 0 0 1 2.4,-2.4 h 4.2 a 2.4,2.4 0 0 1 2.4,2.4 v 0 4.2 a 2.39,2.39 0 0 1 -2.4,2.4 z m -0.8,-6.6 v 4.2 a 0.8,0.8 0 0 0 0.8,0.8 h 4.2 a 0.8,0.8 0 0 0 0.8,-0.8 v 0 -4.2 a 0.8,0.8 0 0 0 -0.8,-0.8 H 416 a 0.8,0.8 0 0 0 -0.8,0.8 z"
           style="fill:#f4f4f4" />
        <path
           id="left-2"
           data-name="left"
           d="m 168.81,37.5 a 2.39,2.39 0 0 1 -2.4,-2.4 v 0 -4.2 a 2.4,2.4 0 0 1 2.4,-2.4 H 173 a 2.41,2.41 0 0 1 2.4,2.4 v 0 4.2 a 2.4,2.4 0 0 1 -2.4,2.4 h -4.2 z m -0.8,-6.6 v 4.2 a 0.8,0.8 0 0 0 0.8,0.8 H 173 a 0.8,0.8 0 0 0 0.8,-0.8 v 0 -4.2 A 0.81,0.81 0 0 0 173,30.1 h -4.2 a 0.8,0.8 0 0 0 -0.8,0.8 z"
           style="fill:#f4f4f4" />
      </g>
    </g>
    <path
       id="LED"
       d="m 430.25,178.53 c 0,0.4 -0.89,0.73 -2,0.73 v 0 c -1.1,0 -2,-0.33 -2,-0.73 V 176 c 0,-0.4 0.9,-0.72 2,-0.72 v 0 c 1.11,0 2,0.32 2,0.72 z"
       style="fill:#f4f4f4" />
    <g
       id="speakers">
      <path
         id="right-3"
         data-name="right"
         d="m 409.11,76.11 a 1.21,1.21 0 1 1 -1.21,1.21 1.21,1.21 0 0 1 1.21,-1.21 z m 9,-8.79 a 1.21,1.21 0 1 1 -1.21,1.21 1.21,1.21 0 0 1 1.19,-1.21 z m 0,8.79 a 1.21,1.21 0 1 1 0,2.42 1.21,1.21 0 1 1 0,-2.42 z m 9,0 a 1.21,1.21 0 1 1 -1.21,1.21 1.21,1.21 0 0 1 1.18,-1.21 z m -19.21,1.21 a 1.21,1.21 0 1 1 1.21,1.21 1.21,1.21 0 0 1 -1.21,-1.21 z m 9,8.79 a 1.21,1.21 0 1 1 1.21,1.21 1.21,1.21 0 0 1 -1.23,-1.21 z m 0,-8.79 a 1.21,1.21 0 1 1 1.21,1.21 1.21,1.21 0 0 1 -1.23,-1.21 z m 9,0 a 1.21,1.21 0 1 1 1.21,1.21 1.21,1.21 0 0 1 -1.24,-1.21 z"
         style="fill:#f4f4f4" />
      <path
         id="left-3"
         data-name="left"
         d="m 161.92,76.11 a 1.21,1.21 0 1 1 -1.21,1.21 1.21,1.21 0 0 1 1.21,-1.21 z m 9,-8.79 a 1.21,1.21 0 1 1 -1.21,1.21 1.21,1.21 0 0 1 1.2,-1.21 z m 0,8.79 a 1.21,1.21 0 1 1 -1.21,1.21 1.21,1.21 0 0 1 1.2,-1.21 z m 9,0 a 1.21,1.21 0 1 1 -1.21,1.21 1.21,1.21 0 0 1 1.18,-1.21 z m -19.18,1.21 a 1.21,1.21 0 1 1 1.21,1.21 1.21,1.21 0 0 1 -1.24,-1.21 z m 9,8.79 a 1.21,1.21 0 1 1 1.21,1.21 1.21,1.21 0 0 1 -1.25,-1.21 z m 0,-8.79 a 1.21,1.21 0 0 1 2.42,0 1.21,1.21 0 1 1 -2.42,0 z m 9,0 a 1.21,1.21 0 1 1 1.21,1.21 1.21,1.21 0 0 1 -1.27,-1.21 z"
         style="fill:#f4f4f4" />
    </g>
    <g
       id="buttons">
      <path
         id="select"
         d="m 388.74,309 a 5,5 0 0 1 5,-4.95 v 0 a 5,5 0 0 1 5,4.95 v 0 a 5,5 0 0 1 -5,5 v 0 a 5,5 0 0 1 -5,-5 z m 1.86,0 a 3.1,3.1 0 0 0 3.1,3.1 v 0 a 3.1,3.1 0 0 0 3.1,-3.1 v 0 a 3.09,3.09 0 0 0 -3.1,-3.09 v 0 a 3.09,3.09 0 0 0 -3.1,3.09 z"
         style="fill:#f4f4f4" />
      <path
         id="start"
         d="m 388.74,292.58 a 5,5 0 0 1 5,-5 v 0 a 5,5 0 0 1 5,5 v 0 a 5,5 0 0 1 -5,5 v 0 a 5,5 0 0 1 -5,-5 z m 1.86,0 a 3.1,3.1 0 0 0 3.1,3.1 v 0 a 3.11,3.11 0 0 0 3.1,-3.1 v 0 a 3.12,3.12 0 0 0 -3.1,-3.1 v 0 a 3.11,3.11 0 0 0 -3.1,3.1 z"
         style="fill:#f4f4f4" />
      <path
         id="Y"
         d="m 388.43,243.78 a 8.83,8.83 0 0 1 8.83,-8.83 v 0 a 8.83,8.83 0 0 1 8.83,8.83 v 0 a 8.83,8.83 0 0 1 -8.83,8.83 v 0 a 8.83,8.83 0 0 1 -8.83,-8.83 z m 1.86,0 a 7,7 0 0 0 7,7 v 0 a 7,7 0 0 0 7,-7 v 0 a 7,7 0 0 0 -7,-7 v 0 a 7,7 0 0 0 -7,7 z"
         style="fill:#f4f4f4" />
      <path
         id="B"
         d="m 404.86,260.2 a 8.83,8.83 0 0 1 8.83,-8.83 v 0 a 8.83,8.83 0 0 1 8.83,8.83 v 0 a 8.83,8.83 0 0 1 -8.83,8.83 v 0 a 8.83,8.83 0 0 1 -8.83,-8.83 z m 1.85,0 a 7,7 0 0 0 7,7 v 0 a 7,7 0 0 0 7,-7 v 0 a 7,7 0 0 0 -7,-7 v 0 a 7,7 0 0 0 -7,7 z"
         style="fill:#f4f4f4" />
      <path
         id="A"
         d="m 421.74,243.78 a 8.83,8.83 0 0 1 8.84,-8.83 v 0 a 8.83,8.83 0 0 1 8.83,8.83 v 0 a 8.83,8.83 0 0 1 -8.83,8.83 v 0 a 8.83,8.83 0 0 1 -8.84,-8.83 z m 1.86,0 a 7,7 0 0 0 7,7 v 0 a 7,7 0 0 0 7,-7 v 0 a 7,7 0 0 0 -7,-7 v 0 a 7,7 0 0 0 -7,7 z"
         style="fill:#f4f4f4" />
      <path
         id="X"
         d="m 404.86,227.2 a 8.83,8.83 0 0 1 8.83,-8.83 v 0 a 8.83,8.83 0 0 1 8.83,8.83 v 0 a 8.83,8.83 0 0 1 -8.83,8.83 v 0 a 8.83,8.83 0 0 1 -8.83,-8.83 z m 1.85,0 a 7,7 0 0 0 7,7 v 0 a 7,7 0 0 0 7,-7 v 0 a 7,7 0 0 0 -7,-7 v 0 a 7,7 0 0 0 -7,7 z"
         style="fill:#f4f4f4" />
    </g>
    <path
       id="c-stick"
       d="m 390.45,210.93 a 7,7 0 0 1 7,-7 v 0 a 7,7 0 0 1 7,7 v 0 a 7,7 0 0 1 -7,7 v 0 a 7,7 0 0 1 -7,-7 z m 1.46,0 a 5.53,5.53 0 0 0 5.51,5.51 v 0 a 5.51,5.51 0 0 0 5.5,-5.51 v 0 a 5.5,5.5 0 0 0 -5.5,-5.5 v 0 a 5.51,5.51 0 0 0 -5.51,5.5 z"
       style="fill:#f4f4f4" />
    <g
       id="_3D"
       data-name="3D">
      <rect
         id="slot"
         x="441.76999"
         y="100.16"
         width="6.73"
         height="34.509998"
         rx="2"
         style="fill:none;stroke:#f4f4f4;stroke-width:2px;stroke-miterlimit:10" />
      <rect
         id="slider"
         x="441.76999"
         y="100.16"
         width="6.73"
         height="10"
         rx="2"
         style="fill:none;stroke:#f4f4f4;stroke-width:2px;stroke-miterlimit:10" />
    </g>
    <g
       id="volume">
      <rect
         id="slot-2"
         data-name="slot"
         x="140.5"
         y="100.16"
         width="6.73"
         height="34.509998"
         rx="2"
         style="fill:none;stroke:#f4f4f4;stroke-width:2px;stroke-miterlimit:10" />
      <rect
         id="slider-2"
         data-name="slider"
         x="140.5"
         y="100.16"
         width="6.73"
         height="10"
         rx="2"
         style="fill:none;stroke:#f4f4f4;stroke-width:2px;stroke-miterlimit:10" />
    </g>
  </g>
</svg>
