<?xml version="1.0" encoding="UTF-8" standalone="no"?>
<svg
   id="Layer_1"
   data-name="Layer 1"
   width="674.79"
   height="82.35"
   viewBox="0 0 674.79 82.35"
   version="1.1"
   sodipodi:docname="system.svg"
   inkscape:version="1.1 (c68e22c387, 2021-05-23)"
   xmlns:inkscape="http://www.inkscape.org/namespaces/inkscape"
   xmlns:sodipodi="http://sodipodi.sourceforge.net/DTD/sodipodi-0.dtd"
   xmlns="http://www.w3.org/2000/svg"
   xmlns:svg="http://www.w3.org/2000/svg">
  <defs
     id="defs9" />
  <sodipodi:namedview
     id="namedview7"
     pagecolor="#ffffff"
     bordercolor="#666666"
     borderopacity="1.0"
     inkscape:pageshadow="2"
     inkscape:pageopacity="0.0"
     inkscape:pagecheckerboard="0"
     showgrid="false"
     inkscape:zoom="1.5678952"
     inkscape:cx="337.71389"
     inkscape:cy="41.137952"
     inkscape:window-width="1920"
     inkscape:window-height="1027"
     inkscape:window-x="1912"
     inkscape:window-y="-8"
     inkscape:window-maximized="1"
     inkscape:current-layer="Layer_1" />
  <g
     id="g15"
     inkscape:label="3DS">
    <path
       id="DS"
       d="m 594.11,66 c 7.39,2.91 23,5.27 35.12,5.27 13.31,0 18.83,-4.56 18.83,-10.3 0,-5.14 -5.13,-8.16 -19.83,-13.55 -19.64,-7.26 -34.05,-13 -34.05,-25.88 0,-13.33 17.34,-21.19 43.82,-21.19 14.19,0 19.07,0.89 28.09,2.55 l 0.06,12.68 C 657.3,13.89 649.45,11 637.26,11 c -13.07,0 -18.63,4.15 -18.63,8.42 0,6.2 8.57,9.17 23.61,14.53 20.94,7.5 32.59,13.28 32.59,25.91 0,13 -14.59,22.39 -47.49,22.39 a 193.13,193.13 0 0 1 -33.19,-2.56 z m -70,-54.48 c 24,0 39.2,10.52 39.2,29.76 0,19.24 -15.16,29.51 -39.2,29.51 H 508.42 V 11.55 h 15.66 m 42,64.79 c 18.91,-8.52 25,-22.12 25,-35 0,-12.88 -6.15,-26.53 -25,-35 C 558.36,2.78 543.72,0.52 530.91,0.52 H 482 v 81.55 h 48.94 c 12.81,0 27.45,-2.22 35.21,-5.73"
       style="fill:#757575" />
    <path
       id="_3"
       data-name="3"
       d="m 447.66,37.45 c 0,0 22.83,-3.66 22.83,-17.87 C 470.49,5.68 446.18,0 420.32,0 c -23.35,0 -38.7,2.85 -38.7,2.85 v 12.63 c 10.6,-2.57 20.73,-4.75 34.55,-4.75 14.82,0 26.13,4.42 26.13,10.67 0,7.54 -11.18,11.84 -35.26,11.84 H 396 V 44.6 h 10.28 c 25.37,0 39.79,3.81 39.79,13.12 0,8.31 -12.89,13.36 -29,13.36 -14,0 -26.82,-3 -37.22,-5.86 v 13.61 c 5,0.86 18.24,3.52 42.92,3.52 27.33,0 51.11,-8.79 51.11,-24.28 0,-13 -16.47,-20.62 -26.23,-20.62"
       style="fill:#d12228" />
    <path
       id="O"
       d="m 364.2,74 a 1.6,1.6 0 0 1 -1.6,1.59 H 332.14 A 1.58,1.58 0 0 1 330.55,74 V 52 a 1.58,1.58 0 0 1 1.59,-1.59 h 30.46 a 1.6,1.6 0 0 1 1.6,1.59 z m -1.32,-30.23 h -31 a 8.17,8.17 0 0 0 -8.14,8.15 V 74 a 8.17,8.17 0 0 0 8.14,8.15 h 31 A 8.18,8.18 0 0 0 371,74 V 51.88 a 8.18,8.18 0 0 0 -8.15,-8.15"
       style="fill:#c4c3c3" />
    <path
       id="NINTENDO"
       d="M 7.12,10.62 V 39.1 H 0 V 0.66 h 6.08 l 28.82,28 v -28 h 7 V 39.1 H 36.36 Z M 107.71,39.1 h 5.56 V 0.66 h -7 v 28 L 77.41,0.66 H 71.34 V 39.1 h 7.12 V 10.62 Z m 147.86,0 h 5.55 V 0.66 h -7 v 28 l -28.85,-28 H 219.2 V 39.1 h 7.11 V 10.62 Z M 53.07,0.66 V 39.1 h 7.11 V 0.66 Z m 68.26,0 v 6.61 h 17.15 V 39.1 h 7.39 V 7.27 H 163 V 0.66 h -41.7 z m 49.77,0 V 39.1 h 37.54 v -6.62 h -30.5 v -10 h 23.6 V 15.9 h -23.6 V 7.27 h 30.5 V 0.66 Z m 129.59,31.82 c 6.83,0 9.27,-6.79 9.27,-12.61 0,-5.82 -2.44,-12.6 -9.27,-12.6 h -21.86 v 25.21 h 21.86 m 11.67,-26.2 c 2.61,3.4 4,8.11 4,13.59 0,5.48 -1.38,10.2 -4,13.61 A 14.31,14.31 0 0 1 300.48,39.1 H 272 V 0.66 h 28.51 a 14.31,14.31 0 0 1 11.88,5.62 m 51.81,2.58 a 1.59,1.59 0 0 0 -1.6,-1.58 h -30.46 a 1.58,1.58 0 0 0 -1.59,1.58 v 22 a 1.59,1.59 0 0 0 1.59,1.58 h 30.46 a 1.6,1.6 0 0 0 1.6,-1.58 z m -1.32,-8.2 A 8.18,8.18 0 0 1 371,8.82 V 31 a 8.17,8.17 0 0 1 -8.15,8.15 h -31 A 8.16,8.16 0 0 1 323.72,31 V 8.82 a 8.17,8.17 0 0 1 8.14,-8.16 h 31"
       style="fill:#757575" />
  </g>
</svg>
