<?xml version="1.0" encoding="UTF-8" standalone="no"?>
<svg
   id="wii"
   width="170"
   height="82.35"
   viewBox="0 0 170 82.35"
   version="1.1"
   sodipodi:docname="system.svg"
   inkscape:version="1.1 (c68e22c387, 2021-05-23)"
   xmlns:inkscape="http://www.inkscape.org/namespaces/inkscape"
   xmlns:sodipodi="http://sodipodi.sourceforge.net/DTD/sodipodi-0.dtd"
   xmlns="http://www.w3.org/2000/svg"
   xmlns:svg="http://www.w3.org/2000/svg">
  <defs
     id="defs7" />
  <sodipodi:namedview
     id="namedview5"
     pagecolor="#ffffff"
     bordercolor="#666666"
     borderopacity="1.0"
     inkscape:pageshadow="2"
     inkscape:pageopacity="0.0"
     inkscape:pagecheckerboard="0"
     showgrid="false"
     inkscape:zoom="6.2235294"
     inkscape:cx="84.91966"
     inkscape:cy="41.214556"
     inkscape:window-width="1920"
     inkscape:window-height="1027"
     inkscape:window-x="1912"
     inkscape:window-y="-8"
     inkscape:window-maximized="1"
     inkscape:current-layer="wii" />
  <g
     id="g1">
    <path
       id="logo"
       d="M29,80.89a13.78,13.78,0,0,1-8.45-8c-1-2.55-4.65-15.36-17.39-61.23L1.26,4.74l8.63,0c4.74,0,8.69,0,8.76.1S22,17.37,25.83,32.57l7,27.63,3.35-12.81c8-30.42,9.3-35.33,10.3-37.43A10.12,10.12,0,0,1,53,4.36a17.6,17.6,0,0,1,6.35,0,10.15,10.15,0,0,1,6.84,6.31c.81,2,2.55,8.42,9.07,33.42,2.2,8.41,4.06,15.46,4.14,15.64s2.81-10.12,7.21-27.37l7.07-27.7h8.77c6.92,0,8.74.05,8.67.24s-1.91,6.83-4.14,14.88C96.34,58.21,92.62,71.12,91.58,73.4a13,13,0,0,1-8.32,7.48,16.68,16.68,0,0,1-6.18,0,9.63,9.63,0,0,1-5-3,10.73,10.73,0,0,1-2.56-3.5c-1.22-2.49-2.4-6.56-9.93-34.2-1.76-6.5-3.26-12-3.32-12.11s-1.88,6.2-4.06,14.12C47.47,59.64,45,68.65,44.18,71.11c-1.69,5.32-4.76,8.72-8.81,9.77A18.3,18.3,0,0,1,29,80.89Zm123.27.21h16.47V28.2H152.29V81.1Zm-33.5,0h16.47V28.2H118.79V81.1ZM136,10.86a9,9,0,1,1-9-9A9,9,0,0,1,136,10.86Zm33.5,0a9,9,0,1,1-9-9A9,9,0,0,1,169.52,10.86Z"
       style="fill: #999" />
  </g>
</svg>
