<?xml version="1.0" encoding="UTF-8" standalone="no"?>
<svg
   id="gamecube"
   width="227.4"
   height="82.3"
   viewBox="0 0 227.4 82.3"
   version="1.1"
   sodipodi:docname="system.svg"
   inkscape:version="1.1 (c68e22c387, 2021-05-23)"
   xmlns:inkscape="http://www.inkscape.org/namespaces/inkscape"
   xmlns:sodipodi="http://sodipodi.sourceforge.net/DTD/sodipodi-0.dtd"
   xmlns="http://www.w3.org/2000/svg"
   xmlns:svg="http://www.w3.org/2000/svg">
  <sodipodi:namedview
     id="namedview74"
     pagecolor="#ffffff"
     bordercolor="#666666"
     borderopacity="1.0"
     inkscape:pageshadow="2"
     inkscape:pageopacity="0.0"
     inkscape:pagecheckerboard="0"
     showgrid="false"
     inkscape:zoom="4.6525947"
     inkscape:cx="113.59253"
     inkscape:cy="41.159829"
     inkscape:window-width="1920"
     inkscape:window-height="1027"
     inkscape:window-x="1912"
     inkscape:window-y="-8"
     inkscape:window-maximized="1"
     inkscape:current-layer="gamecube" />
  <defs
     id="defs56">
    <linearGradient
       id="linear-gradient"
       x1="-149.97"
       y1="998.33"
       x2="-138.76"
       y2="991.97"
       gradientTransform="translate(199.29 -979.53)"
       gradientUnits="userSpaceOnUse">
      <stop
         offset="0"
         stop-color="#3956e7"
         id="stop2" />
      <stop
         offset="1"
         stop-color="#3f53c5"
         id="stop4" />
    </linearGradient>
    <linearGradient
       id="linear-gradient-2"
       x1="-115.55"
       y1="1027.7"
       x2="-99.61"
       y2="1037.68"
       gradientTransform="translate(153.39 -1018.73)"
       gradientUnits="userSpaceOnUse">
      <stop
         offset="0"
         stop-color="#a7c2fd"
         id="stop7" />
      <stop
         offset="1"
         stop-color="#7990f4"
         id="stop9" />
    </linearGradient>
    <linearGradient
       id="linear-gradient-3"
       x1="-27.88"
       y1="981.84"
       x2="-3.6"
       y2="966.65"
       gradientTransform="translate(36.36 -957.38)"
       gradientUnits="userSpaceOnUse">
      <stop
         offset="0"
         stop-color="#4c6fcd"
         id="stop12" />
      <stop
         offset="1"
         stop-color="#4166cd"
         id="stop14" />
    </linearGradient>
    <linearGradient
       id="linear-gradient-4"
       x1="-116.98"
       y1="836.55"
       x2="-93.48"
       y2="823"
       gradientTransform="translate(155.25 -763.5)"
       gradientUnits="userSpaceOnUse">
      <stop
         offset="0"
         stop-color="#e6edf8"
         id="stop17" />
      <stop
         offset="1"
         stop-color="#6b8de2"
         id="stop19" />
    </linearGradient>
    <linearGradient
       id="linear-gradient-5"
       x1="-195.36"
       y1="932.95"
       x2="-195.38"
       y2="948.4"
       gradientTransform="translate(259.92 -892.17)"
       gradientUnits="userSpaceOnUse">
      <stop
         offset="0"
         stop-color="#7998f0"
         id="stop22" />
      <stop
         offset="1"
         stop-color="#c2d6ff"
         id="stop24" />
    </linearGradient>
    <linearGradient
       id="linear-gradient-6"
       x1="-109.32"
       y1="931.57"
       x2="-73.73"
       y2="952.12"
       gradientTransform="translate(145 -890.31)"
       gradientUnits="userSpaceOnUse">
      <stop
         offset="0"
         stop-color="#1e54cf"
         id="stop27" />
      <stop
         offset="0.72"
         stop-color="#5e89e8"
         id="stop29" />
      <stop
         offset="0.96"
         stop-color="#90abe2"
         id="stop31" />
      <stop
         offset="1"
         stop-color="#90abe2"
         id="stop33" />
    </linearGradient>
    <linearGradient
       id="linear-gradient-7"
       x1="-22.88"
       y1="974.63"
       x2="-22.99"
       y2="1003.04"
       gradientTransform="translate(29.68 -947.83)"
       gradientUnits="userSpaceOnUse">
      <stop
         offset="0"
         stop-color="#4c6fcd"
         id="stop36" />
      <stop
         offset="1"
         stop-color="#304dba"
         id="stop38" />
    </linearGradient>
    <linearGradient
       id="linear-gradient-8"
       x1="-30.63"
       y1="877.05"
       x2="-7.13"
       y2="890.8"
       gradientTransform="translate(39.98 -817.55)"
       gradientUnits="userSpaceOnUse">
      <stop
         offset="0"
         stop-color="#fbfcfd"
         id="stop41" />
      <stop
         offset="1"
         stop-color="#dfe8f4"
         id="stop43" />
    </linearGradient>
    <radialGradient
       id="radial-gradient"
       cx="-983.56"
       cy="988.09"
       r="41.38"
       gradientTransform="translate(-988.01 -921.55) rotate(-90)"
       gradientUnits="userSpaceOnUse">
      <stop
         offset="0"
         stop-color="#5175e9"
         id="stop46" />
      <stop
         offset="1"
         stop-color="#aedafc"
         id="stop48" />
    </radialGradient>
    <radialGradient
       id="radial-gradient-2"
       cx="63.48"
       cy="-4.56"
       r="41.38"
       gradientTransform="translate(31.19 -63.48) rotate(90)"
       gradientUnits="userSpaceOnUse">
      <stop
         offset="0"
         stop-color="#a7c2fd"
         id="stop51" />
      <stop
         offset="1"
         stop-color="#fcffff"
         id="stop53" />
    </radialGradient>
  </defs>
  <g
     id="g91"
     inkscape:label="gc">
    <g
       id="top_face_edges"
       data-name="top face edges">
      <path
         id="right_edge"
         data-name="right edge"
         d="M 51.8,11 V 23.8 L 62.7,17.4 V 15.7 Z"
         style="fill:url(#linear-gradient)" />
      <path
         id="center_edge"
         data-name="center edge"
         d="M 51.8,11 36,1.8 l -0.2,12.6 16,9.4 z"
         style="fill:url(#linear-gradient-2)" />
      <path
         id="left_edge"
         data-name="left edge"
         d="M 36,1.8 0.2,22.5 11.2,28.8 35.8,14.5 Z"
         style="fill:url(#linear-gradient-3)" />
    </g>
    <g
       id="right_face"
       data-name="right face">
      <path
         id="bottom_edge"
         data-name="bottom edge"
         d="M 59.1,54.9 35.6,68.5 V 80.7 L 70,60.9 Z"
         style="fill:url(#linear-gradient-4)" />
      <path
         id="right_edge-2"
         data-name="right edge"
         d="M 70,33.9 59.1,40 V 55 L 70,60.9 Z"
         style="fill:url(#linear-gradient-5)" />
      <path
         id="face"
         d="M 71.4,20.7 35.6,41.4 v 19.1 l 16.7,-9.6 v -5.5 l 8.2,-4.6 v 15 L 35.6,70.1 V 82.4 L 71.4,61.7 Z"
         style="fill:url(#linear-gradient-6)" />
    </g>
    <g
       id="left_face"
       data-name="left face">
      <path
         id="left_edge-2"
         data-name="left edge"
         d="M 1.3,60.6 12.2,56.1 V 27.8 L 1.3,21.6 Z"
         style="fill:url(#linear-gradient-7)" />
      <path
         id="bottom_edge-2"
         data-name="bottom edge"
         d="M 1.3,61.2 35.6,80.9 V 68.6 L 12.1,54.7 Z"
         style="fill:url(#linear-gradient-8)" />
      <path
         id="face-2"
         data-name="face"
         d="M 0.1,62 35.6,82.3 V 70.1 L 10.9,55.5 V 26.8 L 0.1,20.6 V 62 M 35.6,60.5 V 41.4 L 19.1,31.8 V 51 Z"
         style="fill:url(#radial-gradient)" />
    </g>
    <path
       id="top_face"
       data-name="top face"
       d="M 71.1,20.8 70.1,20.2 51.3,31.1 35.6,22.1 19,31.8 35.7,41.4 71.1,20.8 M 62.6,15.6 35.8,0 0,20.6 11,26.9 35.6,12.6 51.6,22 Z"
       style="fill:url(#radial-gradient-2)" />
    <path
       id="gamecube-2"
       data-name="gamecube"
       d="M 153.8,40.6 V 50 c 0,2.1 1.7,3.2 3.9,3.2 H 168 c 2.1,0 3.5,-1.1 3.5,-3.2 v -3.7 h -4.2 v 3 h -8.9 v -8.2 h 8.9 v 2.7 h 4.2 v -3.2 c 0,-2.1 -1.3,-3.2 -3.5,-3.2 h -10.3 c -2.2,0 -3.9,1.1 -3.9,3.2 z M 173,37.4 V 50 c 0,2.1 1.7,3.2 3.9,3.2 h 10.3 c 2.1,0 3.5,-1.1 3.5,-3.2 V 37.4 h -4.2 v 12 h -8.9 v -12 z m 38.1,0 v 15.9 h 16.2 v -3.8 h -12 v -2.8 h 6.9 v -3.4 h -6.9 v -2.4 h 12 v -3.6 h -16.2 z m -76.2,0 v 15.9 h 16.2 v -3.8 h -12 v -2.8 h 6.9 v -3.4 h -6.9 v -2.4 h 12 V 37.3 H 134.9 Z M 92.2,53.3 h 11.5 v -3.8 h -5 l 4.5,-7.4 6.2,11.2 h 7.1 v -8.1 l 4.6,8.1 h 3.3 l 4.6,-8.1 v 8.1 h 4.1 V 37.4 h -4 l -6.4,10.9 -6.4,-10.9 h -4 V 50.2 L 105,37.4 h -3.8 z M 74.2,40.6 V 50 c 0,2.1 1.7,3.2 3.9,3.2 H 89.5 C 91.6,53.2 93,52.1 93,50 V 43.6 H 83 v 3.6 h 5.6 v 2.2 h -9.8 v -8.2 h 14 V 37.5 H 78.1 c -2.1,-0.1 -3.9,1 -3.9,3.1 z M 192.4,37.4 V 53.2 H 206 a 3.61,3.61 0 0 0 3.6,-3.4 V 48 a 3.82,3.82 0 0 0 -1.4,-2.8 3.37,3.37 0 0 0 1.2,-2.6 v -2.2 c 0,-1.9 -1.7,-3 -3.6,-3 h -13.4 m 4.4,6 v -2.5 h 8 a 0.56,0.56 0 0 1 0.6,0.7 v 1.2 a 0.75,0.75 0 0 1 -0.6,0.7 l -8,-0.1 m 0,6.1 v -2.8 h 8 c 0.4,0 0.6,0.3 0.6,0.7 v 1.5 a 0.75,0.75 0 0 1 -0.6,0.7 h -8 z" />
    <path
       id="nintendo"
       d="m 99.8,21.1 h 2.6 v 12.2 h -2.6 z m -15.2,0 v 7.4 L 80.8,21.1 H 77.6 V 33.3 H 80 v -9.1 l 4.6,9.1 H 87 V 21.1 Z m 37.4,0 v 7.4 l -3.8,-7.4 H 115 v 12.2 h 2.4 v -9.1 l 4.6,9.1 h 2.4 V 21.1 Z m 59.3,0 v 7.4 l -3.8,-7.4 h -3.2 v 12.2 h 2.4 v -9.1 l 4.6,9.1 h 2.4 V 21.1 Z m -42.9,2 V 33.3 H 141 V 23.1 h 3.8 v -2 h -10.2 v 2 z m 76.2,1.2 v 5.9 a 3.38,3.38 0 0 0 3.6,3.2 h 2.5 a 3.44,3.44 0 0 0 3.6,-3.2 v -5.9 a 3.38,3.38 0 0 0 -3.6,-3.2 h -2.5 a 3.38,3.38 0 0 0 -3.6,3.2 m 2.2,0.2 a 1.24,1.24 0 0 1 1.1,-1.4 h 2.7 a 1.37,1.37 0 0 1 1.4,1.4 v 5.4 a 1.37,1.37 0 0 1 -1.4,1.4 h -2.4 a 1.37,1.37 0 0 1 -1.4,-1.4 v 0 z m -22,-3.4 v 12.2 h 5.9 a 3.44,3.44 0 0 0 3.6,-3.2 V 24.2 A 3.38,3.38 0 0 0 200.7,21 h -5.9 m 2.4,10.4 v -8.2 h 3.4 a 1.37,1.37 0 0 1 1.4,1.4 V 30 a 1.37,1.37 0 0 1 -1.4,1.4 z m -42.9,-7.1 v 5.9 a 3.38,3.38 0 0 0 3.6,3.2 h 5.4 v -2 h -5.4 A 1.37,1.37 0 0 1 156.5,30 v 0 -2 h 6.8 v -2 h -6.8 v -1.4 a 1.24,1.24 0 0 1 1.1,-1.4 h 5.7 v -2 h -5.4 a 3.24,3.24 0 0 0 -3.6,3.1 z"
       style="fill:#c2d3da" />
  </g>
</svg>
