<?xml version="1.0" encoding="UTF-8" standalone="no"?>
<svg
   id="ps3"
   width="385.72"
   height="82.35"
   viewBox="0 0 385.72 82.35"
   version="1.1"
   sodipodi:docname="system.svg"
   inkscape:version="1.1 (c68e22c387, 2021-05-23)"
   xmlns:inkscape="http://www.inkscape.org/namespaces/inkscape"
   xmlns:sodipodi="http://sodipodi.sourceforge.net/DTD/sodipodi-0.dtd"
   xmlns:xlink="http://www.w3.org/1999/xlink"
   xmlns="http://www.w3.org/2000/svg"
   xmlns:svg="http://www.w3.org/2000/svg">
  <sodipodi:namedview
     id="namedview24"
     pagecolor="#ffffff"
     bordercolor="#666666"
     borderopacity="1.0"
     inkscape:pageshadow="2"
     inkscape:pageopacity="0.0"
     inkscape:pagecheckerboard="0"
     showgrid="false"
     inkscape:zoom="2.7429223"
     inkscape:cx="192.67771"
     inkscape:cy="41.01465"
     inkscape:window-width="1920"
     inkscape:window-height="1027"
     inkscape:window-x="1912"
     inkscape:window-y="-8"
     inkscape:window-maximized="1"
     inkscape:current-layer="ps3" />
  <defs
     id="defs17">
    <linearGradient
       id="linear-gradient"
       x1="264.81"
       y1="42.8"
       x2="385.48"
       y2="42.8"
       gradientTransform="matrix(1, 0, 0, -1, 0, 84)"
       gradientUnits="userSpaceOnUse">
      <stop
         offset="0"
         stop-color="#969696"
         id="stop2" />
      <stop
         offset="0.19"
         stop-color="#6f6f6f"
         id="stop4" />
      <stop
         offset="0.45"
         stop-color="#404040"
         id="stop6" />
      <stop
         offset="0.68"
         stop-color="#1d1d1d"
         id="stop8" />
      <stop
         offset="0.88"
         stop-color="#080808"
         id="stop10" />
      <stop
         offset="1"
         id="stop12" />
    </linearGradient>
    <linearGradient
       id="linear-gradient-2"
       x1="117.08"
       y1="42.83"
       x2="247.29"
       y2="42.83"
       xlink:href="#linear-gradient" />
    <linearGradient
       id="linear-gradient-3"
       x1="0.25"
       y1="42.82"
       x2="121"
       y2="42.82"
       xlink:href="#linear-gradient" />
  </defs>
  <g
     id="g9">
    <path
       id="path22"
       d="M265.12,82.15a.34.34,0,0,1-.31-.33V74.17a.32.32,0,0,1,.31-.29h91.49c7.32,0,11.69-5.1,11.69-13.64v-1c0-4.54-1.14-15.12-11.67-15.25h-91.5a.31.31,0,0,1-.32-.3h0V36a.32.32,0,0,1,.31-.29h91.51c7.32,0,11.69-5.07,11.69-13.56S364,8.56,356.63,8.56H265.12a.34.34,0,0,1-.31-.33V.58a.33.33,0,0,1,.33-.33h97.34c14.17,0,23,8.4,23,21.92,0,7.18-2.48,13-7.16,16.88a1,1,0,0,0-.25.7l-.62-.2.83.78c4.56,4.11,7.17,11,7.17,18.9v1c0,10.11-6,21.92-23,21.92Z"
       style="fill: url(#linear-gradient)" />
    <path
       id="path11"
       d="M117.39,82.1a.34.34,0,0,1-.31-.33V74.1a.31.31,0,0,1,.31-.3h44.26c7.3,0,11.66-5.08,11.66-13.6v-38c0-13.54,8.81-21.95,23-21.95h50.6a.37.37,0,0,1,.38.34V8.23a.36.36,0,0,1-.35.32H202.18c-7.42,0-11.68,5-11.68,13.61V60.22c0,13.5-8.82,21.88-23,21.88Z"
       style="fill: url(#linear-gradient-2)" />
    <path
       id="path17"
       d="M.58,82.1A.35.35,0,0,1,.34,82a.36.36,0,0,1-.09-.24V57.44c0-12.38,8.37-21.72,19.48-21.72H92.12c7.3,0,11.66-5.07,11.66-13.56S99.42,8.56,92.12,8.56H.6a.34.34,0,0,1-.35-.33h0V.57A.34.34,0,0,1,.59.25H98c14.16,0,23,8.4,23,21.92S112.16,44,98,44H28.58C22,44,17.45,49.53,17.45,57.44V81.76a.35.35,0,0,1-.33.34Z"
       style="fill: url(#linear-gradient-3)" />
  </g>
</svg>
