<?xml version="1.0" encoding="UTF-8" standalone="no"?>
<svg
   id="ps3"
   width="385.72"
   height="82.35"
   viewBox="0 0 385.72 82.35"
   version="1.1"
   sodipodi:docname="system.svg"
   inkscape:version="1.1 (c68e22c387, 2021-05-23)"
   xmlns:inkscape="http://www.inkscape.org/namespaces/inkscape"
   xmlns:sodipodi="http://sodipodi.sourceforge.net/DTD/sodipodi-0.dtd"
   xmlns="http://www.w3.org/2000/svg"
   xmlns:svg="http://www.w3.org/2000/svg">
  <defs
     id="defs6" />
  <sodipodi:namedview
     id="namedview4"
     pagecolor="#ffffff"
     bordercolor="#666666"
     borderopacity="1.0"
     inkscape:pageshadow="2"
     inkscape:pageopacity="0.0"
     inkscape:pagecheckerboard="0"
     showgrid="false"
     inkscape:zoom="2.7429223"
     inkscape:cx="192.67771"
     inkscape:cy="41.01465"
     inkscape:window-width="1920"
     inkscape:window-height="1027"
     inkscape:window-x="1912"
     inkscape:window-y="-8"
     inkscape:window-maximized="1"
     inkscape:current-layer="ps3" />
  <g
     id="g9"
     inkscape:label="ps3">
    <path
       id="logo"
       d="m 247.54,0.57 v 7.66 a 0.6,0.6 0 0 1 -0.63,0.57 h -44.73 c -7.79,0 -11.43,5.59 -11.43,13.36 v 38.06 c 0,12.53 -7.67,22.13 -23.27,22.13 h -50.09 a 0.57,0.57 0 0 1 -0.56,-0.58 V 74.1 a 0.56,0.56 0 0 1 0.56,-0.55 h 44.26 c 7.74,0 11.41,-5.58 11.41,-13.35 v -38 C 173.06,9.64 180.71,0 196.31,0 h 50.6 a 0.61,0.61 0 0 1 0.63,0.57 z M 98,0 H 0.61 A 0.59,0.59 0 0 0 0,0.57 v 7.66 a 0.59,0.59 0 0 0 0.61,0.58 h 91.51 c 7.73,0 11.41,5.58 11.41,13.35 0,7.77 -3.68,13.31 -11.41,13.31 H 19.73 C 8.48,35.47 0,44.92 0,57.44 v 24.31 a 0.59,0.59 0 0 0 0.61,0.6 h 16.5 a 0.59,0.59 0 0 0 0.59,-0.6 V 57.44 c 0,-7.72 4.44,-13.18 10.88,-13.18 H 98 c 15.58,0 23.21,-9.57 23.21,-22.09 C 121.21,9.65 113.55,0 98,0 Z m 280.5,40.15 a 0.71,0.71 0 0 1 0,-0.91 c 4.85,-4 7.25,-10.07 7.25,-17.07 C 385.72,9.66 378.1,0 362.48,0 h -97.34 a 0.58,0.58 0 0 0 -0.58,0.6 v 7.63 a 0.57,0.57 0 0 0 0.58,0.58 h 91.49 c 7.71,0 11.44,5.58 11.44,13.35 0,7.77 -3.7,13.31 -11.44,13.31 h -0.11 -91.38 a 0.56,0.56 0 0 0 -0.58,0.59 v 7.63 a 0.56,0.56 0 0 0 0.58,0.55 h 91.49 c 10.09,0.12 11.42,10 11.42,15 v 1 c 0,7.79 -3.73,13.39 -11.44,13.39 h -91.47 a 0.56,0.56 0 0 0 -0.58,0.55 v 7.65 a 0.57,0.57 0 0 0 0.58,0.58 h 97.34 c 15.63,0 23.24,-10.38 23.24,-22.17 v -1 c 0,-7.53 -2.4,-14.71 -7.25,-19.09 z"
       style="fill:#e6e6e6" />
  </g>
</svg>
