<?xml version="1.0" encoding="utf-8"?>
<!-- Generator: Adobe Illustrator 26.4.1, SVG Export Plug-In . SVG Version: 6.00 Build 0)  -->
<svg version="1.1" id="Layer_3" xmlns="http://www.w3.org/2000/svg" xmlns:xlink="http://www.w3.org/1999/xlink" x="0px" y="0px"
	 viewBox="0 0 589 350" style="enable-background:new 0 0 589 350;" xml:space="preserve">
<style type="text/css">
	.st0{fill:none;stroke:#F4F4F4;stroke-width:1.5;stroke-miterlimit:10;}
	.st1{fill:#F4F4F4;}
</style>
<g id="paths">
	<path id="body_00000167364132680835647570000011487185445954243463_" class="st0" d="M578.44,166.82l-9.69-33.74
		C547.1,68.46,511.82,29.56,448.05,29.56h-0.47c-11.56,0-23.05,1.57-34.22,4.53c-80.18,21.26-159.28,21.34-237.3,0.24
		c-11.45-3.1-23.25-4.77-35.12-4.77h0c-63.77,0-99.04,38.9-120.69,103.51l-9.69,33.74c-3.68,12.79-5.54,26.08-5.04,39.38
		c2.31,61.83,50.46,109.78,112.78,111.36c0.05,0,3.04,0,6.92,0c11.14,0,22.26-1.05,33.21-3.14c90.71-17.32,181.42-17.32,272.13,0
		c10.95,2.09,22.07,3.14,33.21,3.14c3.88,0,6.87,0,6.92,0c62.32-1.58,110.47-49.53,112.78-111.36
		C583.97,192.89,582.11,179.61,578.44,166.82z"/>
	<circle class="st0" cx="145.07" cy="160.65" r="100.67"/>
	<circle class="st0" cx="145.07" cy="160.65" r="68"/>
	<circle class="st0" cx="145.07" cy="160.65" r="63.5"/>
	<circle class="st0" cx="145.07" cy="160.65" r="40.5"/>
	<circle class="st0" cx="145.07" cy="160.65" r="32.5"/>
	<path class="st0" d="M462.54,200c0,15.54-12.6,28.14-28.14,28.14c-15.54,0-28.14-12.6-28.14-28.14s12.6-28.14,28.14-28.14
		C449.95,171.86,462.54,184.46,462.54,200z M499.66,135.36c-15.54,0-28.14,12.6-28.14,28.14s12.6,28.14,28.14,28.14
		s28.14-12.6,28.14-28.14S515.2,135.36,499.66,135.36z"/>
	<path class="st0" d="M426.29,134.5c0,15.54-12.6,28.14-28.14,28.14c-15.54,0-28.14-12.6-28.14-28.14s12.6-28.14,28.14-28.14
		C413.7,106.36,426.29,118.96,426.29,134.5z M463.41,69.86c-15.54,0-28.14,12.6-28.14,28.14s12.6,28.14,28.14,28.14
		c15.54,0,28.14-12.6,28.14-28.14S478.95,69.86,463.41,69.86z"/>
	<polyline class="st0" points="315.04,49.6 310.04,65.87 278.96,65.87 273.96,49.6 	"/>
</g>
<g id="fills">
	<path id="triangles" class="st1" d="M201.91,208.11l4.85,12.94c0.3,0.8-0.48,1.59-1.29,1.29l-12.94-4.85
		c-0.68-0.26-0.87-1.13-0.36-1.64l8.09-8.09C200.78,207.24,201.65,207.42,201.91,208.11z M97.61,103.81l-12.94-4.85
		c-0.8-0.3-1.59,0.48-1.29,1.29l4.85,12.94c0.26,0.68,1.13,0.87,1.64,0.36l8.09-8.09C98.48,104.94,98.29,104.07,97.61,103.81z
		 M192.53,103.81l12.94-4.85c0.8-0.3,1.59,0.48,1.29,1.29l-4.85,12.94c-0.26,0.68-1.13,0.87-1.64,0.36l-8.09-8.09
		C191.66,104.94,191.85,104.07,192.53,103.81z M88.24,208.11l-4.85,12.94c-0.3,0.8,0.48,1.59,1.29,1.29l12.94-4.85
		c0.68-0.26,0.87-1.13,0.36-1.64l-8.09-8.09C89.36,207.24,88.49,207.42,88.24,208.11z M154.43,234.39l-8.45,18.58
		c-0.36,0.78-1.47,0.78-1.82,0l-8.45-18.58c-0.3-0.66,0.18-1.41,0.91-1.41h16.89C154.24,232.98,154.73,233.73,154.43,234.39z
		 M154.43,86.9l-8.45-18.58c-0.36-0.78-1.47-0.78-1.82,0l-8.45,18.58c-0.3,0.66,0.18,1.41,0.91,1.41h16.89
		C154.24,88.31,154.73,87.56,154.43,86.9z M218.82,151.29l18.58,8.45c0.78,0.36,0.78,1.47,0,1.82L218.82,170
		c-0.66,0.3-1.41-0.18-1.41-0.91V152.2C217.4,151.47,218.16,150.99,218.82,151.29z M71.32,151.29l-18.58,8.45
		c-0.78,0.36-0.78,1.47,0,1.82L71.32,170c0.66,0.3,1.41-0.18,1.41-0.91V152.2C72.74,151.47,71.99,150.99,71.32,151.29z"/>
	<path id="buttons" class="st1" d="M336.02,219.93c-12.02,12-26.31,19.92-42.86,23.76c-1.44,0.8-3.28,0.27-4.08-1.17l-0.97-1.75
		c-0.8-1.44-0.27-3.28,1.17-4.08c12.02-12,26.31-19.92,42.86-23.76c1.44-0.8,3.28-0.27,4.08,1.17l0.97,1.75
		C337.99,217.3,337.46,219.13,336.02,219.93z M337.19,148.61l-0.97-1.75c-0.8-1.44-2.64-1.97-4.08-1.17
		c-16.55,3.84-30.83,11.76-42.86,23.76c-1.44,0.8-1.97,2.64-1.17,4.08l0.97,1.75c0.8,1.44,2.64,1.97,4.08,1.17
		c16.55-3.84,30.83-11.76,42.86-23.76C337.46,151.88,337.99,150.05,337.19,148.61z"/>
	<path id="a" class="st1" d="M416.21,245.88h-5.96l-1.8,3.32h-3.18l8.5-15.03h3.44l2.44,15.03h-2.93L416.21,245.88z M415.83,243.38
		l-0.87-6.05l-3.63,6.05H415.83z"/>
	<path id="b" class="st1" d="M529.84,194.45l3.15-15.03h5.14c1.11,0,1.89,0.03,2.34,0.1c0.74,0.1,1.36,0.31,1.88,0.62
		c0.51,0.31,0.9,0.72,1.17,1.23c0.27,0.51,0.4,1.08,0.4,1.7c0,0.83-0.23,1.56-0.7,2.17c-0.46,0.61-1.18,1.08-2.15,1.39
		c0.77,0.21,1.38,0.59,1.81,1.13c0.43,0.54,0.65,1.16,0.65,1.84c0,0.9-0.26,1.76-0.77,2.57c-0.51,0.81-1.22,1.39-2.12,1.75
		s-2.14,0.53-3.7,0.53H529.84z M533.44,192.03h2.98c1.25,0,2.09-0.08,2.52-0.24c0.43-0.16,0.77-0.43,1.03-0.79
		c0.26-0.37,0.38-0.76,0.38-1.17c0-0.5-0.18-0.91-0.55-1.24s-0.98-0.49-1.85-0.49h-3.69L533.44,192.03z M534.81,185.49h2.36
		c1.06,0,1.82-0.08,2.29-0.23s0.81-0.4,1.05-0.74s0.35-0.71,0.35-1.1c0-0.38-0.11-0.7-0.33-0.94s-0.53-0.41-0.93-0.49
		c-0.23-0.04-0.77-0.06-1.63-0.06h-2.4L534.81,185.49z"/>
	<path id="d" class="st1" d="M496.42,120.45l3.15-15.03h4.05c1.13,0,1.85,0.02,2.16,0.05c0.62,0.06,1.18,0.19,1.67,0.38
		s0.93,0.46,1.33,0.8c0.4,0.35,0.75,0.76,1.04,1.25c0.29,0.49,0.51,1.04,0.67,1.68c0.16,0.63,0.24,1.32,0.24,2.08
		c0,1.62-0.31,3.06-0.93,4.31c-0.62,1.25-1.4,2.25-2.33,2.99c-0.72,0.57-1.64,1-2.78,1.27c-0.64,0.15-1.63,0.23-2.96,0.23H496.42z
		 M500.01,118.03h1.57c1.13,0,1.96-0.07,2.47-0.21c0.51-0.14,0.98-0.4,1.4-0.78c0.61-0.55,1.12-1.29,1.54-2.21s0.63-2.01,0.63-3.26
		c0-1.07-0.17-1.87-0.52-2.4c-0.34-0.54-0.77-0.89-1.28-1.07c-0.36-0.12-0.99-0.18-1.9-0.18h-1.79L500.01,118.03z"/>
	<path id="c" class="st1" d="M391.25,181.04l3.12,0.47c-0.61,1.69-1.52,2.98-2.74,3.87c-1.22,0.89-2.64,1.34-4.28,1.34
		c-1.84,0-3.28-0.55-4.31-1.66c-1.04-1.11-1.55-2.71-1.55-4.82c0-1.71,0.35-3.27,1.04-4.69c0.69-1.42,1.66-2.5,2.89-3.26
		s2.57-1.13,4.02-1.13c1.63,0,2.94,0.44,3.95,1.31c1,0.87,1.6,2.06,1.77,3.56l-2.96,0.29c-0.16-0.87-0.48-1.51-0.95-1.9
		c-0.47-0.39-1.09-0.59-1.87-0.59c-0.85,0-1.65,0.26-2.39,0.78c-0.74,0.52-1.33,1.33-1.78,2.43c-0.44,1.11-0.67,2.21-0.67,3.31
		c0,1.2,0.29,2.13,0.87,2.79c0.58,0.66,1.3,0.98,2.16,0.98c0.8,0,1.53-0.26,2.2-0.78C390.43,182.83,390.93,182.06,391.25,181.04z"/>
	<path id="start" class="st1" d="M270.46,207.72l2.1-0.11c0.03,0.67,0.14,1.12,0.34,1.35c0.32,0.38,0.92,0.57,1.79,0.57
		c0.72,0,1.25-0.13,1.57-0.39c0.32-0.26,0.48-0.57,0.48-0.94c0-0.32-0.13-0.59-0.4-0.8c-0.19-0.16-0.69-0.42-1.53-0.78
		s-1.44-0.66-1.82-0.91c-0.38-0.24-0.69-0.55-0.9-0.94s-0.33-0.84-0.33-1.35c0-0.9,0.33-1.65,0.98-2.25s1.6-0.89,2.84-0.89
		c1.26,0,2.23,0.29,2.93,0.89c0.69,0.59,1.07,1.38,1.14,2.36l-2.12,0.1c-0.05-0.51-0.24-0.91-0.56-1.18s-0.79-0.41-1.41-0.41
		c-0.61,0-1.05,0.11-1.31,0.32s-0.39,0.49-0.39,0.81c0,0.31,0.12,0.56,0.36,0.76c0.24,0.21,0.77,0.49,1.59,0.84
		c1.24,0.53,2.02,0.96,2.36,1.3c0.5,0.49,0.75,1.12,0.75,1.88c0,0.95-0.38,1.76-1.12,2.43c-0.75,0.67-1.79,1.01-3.13,1.01
		c-0.92,0-1.72-0.16-2.4-0.46c-0.68-0.31-1.15-0.74-1.43-1.29S270.44,208.44,270.46,207.72z M284.8,211.2h-2.21l1.88-8.94h-3.15
		l0.37-1.79h8.46l-0.37,1.79h-3.11L284.8,211.2z M295.2,208.83h-4.26l-1.29,2.37h-2.27l6.07-10.74h2.45l1.74,10.74h-2.09
		L295.2,208.83z M294.93,207.04l-0.62-4.32l-2.59,4.32H294.93z M301.26,211.2h-2.21l2.25-10.74h4.77c0.82,0,1.46,0.08,1.92,0.25
		c0.46,0.17,0.83,0.48,1.11,0.93c0.28,0.45,0.42,0.99,0.42,1.63c0,0.91-0.27,1.67-0.82,2.26c-0.55,0.59-1.38,0.96-2.48,1.1
		c0.28,0.25,0.55,0.59,0.8,1c0.49,0.84,1.04,2.03,1.65,3.56h-2.37c-0.19-0.61-0.56-1.55-1.12-2.83c-0.3-0.69-0.62-1.16-0.97-1.4
		c-0.21-0.14-0.58-0.21-1.1-0.21h-0.9L301.26,211.2z M302.53,205.15h1.17c1.19,0,1.97-0.07,2.36-0.21c0.39-0.14,0.69-0.36,0.91-0.67
		s0.33-0.62,0.33-0.95c0-0.39-0.16-0.68-0.48-0.88c-0.2-0.12-0.62-0.18-1.27-0.18h-2.43L302.53,205.15z M314.24,211.2h-2.21
		l1.88-8.94h-3.15l0.37-1.79h8.46l-0.37,1.79h-3.11L314.24,211.2z"/>
	<path id="select" class="st1" d="M270.46,135.72l2.1-0.11c0.03,0.67,0.14,1.12,0.34,1.35c0.32,0.38,0.92,0.57,1.79,0.57
		c0.72,0,1.25-0.13,1.57-0.39s0.48-0.57,0.48-0.94c0-0.32-0.13-0.59-0.4-0.81c-0.19-0.16-0.69-0.42-1.53-0.78s-1.44-0.66-1.82-0.9
		c-0.38-0.24-0.69-0.56-0.9-0.94s-0.33-0.84-0.33-1.35c0-0.9,0.33-1.65,0.98-2.25s1.6-0.89,2.84-0.89c1.26,0,2.23,0.3,2.93,0.89
		s1.07,1.38,1.14,2.36l-2.12,0.1c-0.05-0.51-0.24-0.91-0.56-1.18s-0.79-0.41-1.41-0.41c-0.61,0-1.05,0.11-1.31,0.32
		s-0.39,0.49-0.39,0.81c0,0.31,0.12,0.56,0.36,0.76c0.24,0.21,0.77,0.49,1.59,0.84c1.24,0.53,2.02,0.96,2.36,1.3
		c0.5,0.49,0.75,1.12,0.75,1.88c0,0.95-0.38,1.76-1.12,2.43c-0.75,0.67-1.79,1.01-3.13,1.01c-0.92,0-1.72-0.16-2.4-0.47
		c-0.68-0.31-1.15-0.74-1.43-1.29S270.44,136.44,270.46,135.72z M280.12,139.2l2.24-10.74h7.96l-0.37,1.79h-5.75l-0.51,2.44h5.56
		l-0.37,1.79h-5.56l-0.67,2.92h6.25l-0.38,1.79H280.12z M290.19,139.2l2.25-10.74h2.21l-1.87,8.94h5.46l-0.37,1.79H290.19z
		 M299.29,139.2l2.24-10.74h7.96l-0.37,1.79h-5.75l-0.51,2.44h5.56l-0.37,1.79h-5.56l-0.67,2.92h6.25l-0.38,1.79H299.29z
		 M317.07,135.34l2.23,0.34c-0.43,1.21-1.09,2.13-1.96,2.76c-0.87,0.64-1.89,0.96-3.05,0.96c-1.31,0-2.34-0.4-3.08-1.19
		c-0.74-0.79-1.11-1.94-1.11-3.44c0-1.22,0.25-2.34,0.74-3.35c0.5-1.01,1.18-1.79,2.06-2.33s1.83-0.81,2.87-0.81
		c1.16,0,2.1,0.31,2.82,0.93c0.72,0.62,1.14,1.47,1.27,2.54l-2.12,0.21c-0.12-0.62-0.34-1.08-0.68-1.36
		c-0.33-0.28-0.78-0.42-1.34-0.42c-0.61,0-1.18,0.19-1.71,0.56c-0.53,0.37-0.95,0.95-1.27,1.74s-0.48,1.58-0.48,2.36
		c0,0.86,0.21,1.52,0.62,1.99c0.41,0.47,0.93,0.7,1.54,0.7c0.57,0,1.09-0.19,1.57-0.56C316.48,136.61,316.84,136.06,317.07,135.34z
		 M324.8,139.2h-2.21l1.88-8.94h-3.15l0.37-1.79h8.46l-0.37,1.79h-3.11L324.8,139.2z"/>
	<path id="neo.geo" transform="translate(-683.17328,-356.17754)" class="st1" d="M988.71,463.13h0.35c0.33,0,0.89,0.07,1.12,0.2
		c0.23,0.13,0.38,0.29,0.46,0.45c0.07,0.17,0.11,0.54,0.11,1.11v2.24c0,0.68-0.71,1.02-1.06,1.09c-0.34,0.07-0.68,0.11-1.01,0.11
		c-0.94,0-1.75-0.25-2.44-0.74c-0.68-0.49-1.18-1.26-1.49-2.3c-0.31-1.04-0.46-2.26-0.46-3.65c0-1.14,0.14-2.26,0.42-3.35
		c0.28-1.09,0.76-1.93,1.44-2.54c0.68-0.61,1.52-0.91,2.54-0.91c1.06,0,1.69,0.27,2.47,1.08c0.8,0.83,1.57,1.78,2.02,3.17h0.66V454
		h-0.37c-0.13,0.41-0.28,0.69-0.44,0.83c-0.16,0.15-0.34,0.22-0.52,0.22c-0.12,0-0.51-0.13-1.17-0.4c-0.66-0.27-1.14-0.43-1.43-0.48
		c-0.54-0.11-0.96-0.17-1.64-0.17c-2.18,0-3.99,0.75-5.43,2.25c-1.44,1.5-2.16,3.34-2.16,5.51c0,1.22,0.23,2.31,0.7,3.29
		c0.37,0.76,0.88,1.44,1.53,2.05c0.65,0.61,1.41,1.1,2.26,1.47c0.85,0.37,1.93,0.56,3.22,0.56c1.01,0,1.99-0.1,2.93-0.31
		c0.94-0.21,1.85-0.52,2.72-0.93v-3.01c0-0.53,0.03-0.86,0.09-0.99c0.11-0.26,0.26-0.44,0.46-0.55c0.2-0.11,0.73-0.18,1.24-0.22
		v-0.49h-7.1L988.71,463.13L988.71,463.13z M1005.03,467.02c-0.81,0.62-1.89,0.93-3.23,0.93h-0.77c-0.41,0-0.71-0.06-0.89-0.17
		c-0.18-0.11-0.31-0.26-0.38-0.43c-0.07-0.18-0.1-0.66-0.1-1.45v-4.04c0.69,0,1.5,0.09,1.86,0.27c0.36,0.18,0.68,0.53,0.95,1.05
		c0.27,0.52,0.45,1.1,0.54,1.92h0.58v-7.43h-0.58c-0.11,1.12-0.38,1.87-0.79,2.44c-0.41,0.57-1.08,0.86-1.99,0.86h-0.57v-4.99
		c0-0.87,0.77-0.77,0.77-0.77h0.9c1.09,0,1.83,0.06,2.23,0.19c0.68,0.21,1.21,0.54,1.58,0.99c0.37,0.45,0.66,1.2,0.87,2.23h0.49
		v-4.24h-12.14v0.58h0.38c0.47,0,0.83,0.1,1.1,0.3c0.19,0.13,0.32,0.32,0.39,0.57c0.04,0.15,0.05,0.55,0.05,1.19v8.98
		c0,0.72-0.04,1.16-0.12,1.33c-0.1,0.24-0.24,0.41-0.42,0.51c-0.25,0.15-0.59,0.22-1.01,0.22h-0.38v0.68h12.35l0.74-4.57h-0.68
		C1006.42,465.46,1005.84,466.41,1005.03,467.02 M1014.59,454.17c-2.07-0.09-3.81,0.59-5.23,2.02c-1.42,1.43-2.13,3.23-2.13,5.38
		c0,1.92,0.54,3.57,1.64,4.97c1.38,1.77,3.33,2.65,5.86,2.65c2.52,0,4.47-0.93,5.85-2.78c1.04-1.39,1.56-3.01,1.56-4.85
		c0-2.15-0.7-3.94-2.09-5.37C1018.64,454.75,1016.82,454.08,1014.59,454.17 M1017.89,465.66c-0.34,1-0.81,1.73-1.42,2.18
		c-0.48,0.36-1.07,0.53-1.78,0.53c-1.06,0-1.88-0.41-2.46-1.24c-0.84-1.18-1.26-3.01-1.26-5.48c0-2.08,0.27-3.67,0.82-4.78
		c0.67-1.35,1.64-2.03,2.93-2.03c0.7,0,1.31,0.2,1.85,0.59c0.53,0.39,0.97,1.06,1.32,2.01c0.34,0.95,0.52,2.38,0.52,4.3
		C1018.39,463.36,1018.23,464.66,1017.89,465.66 M968.74,469.1c2.52,0,4.47-0.93,5.85-2.78c1.04-1.4,1.56-3.01,1.56-4.85
		c0-2.15-0.7-3.94-2.09-5.37c-1.4-1.43-3.21-2.1-5.45-2.02c-2.07-0.09-3.81,0.59-5.23,2.02c-1.42,1.43-2.13,3.23-2.13,5.38
		c0,1.92,0.54,3.57,1.64,4.97C964.26,468.22,966.22,469.1,968.74,469.1 M965.78,456.8c0.67-1.35,1.64-2.03,2.93-2.03
		c0.7,0,1.31,0.2,1.85,0.59c0.53,0.39,0.97,1.06,1.32,2.01c0.34,0.95,0.52,2.38,0.52,4.3c0,1.61-0.17,2.91-0.51,3.91
		c-0.34,1-0.81,1.73-1.42,2.18c-0.48,0.36-1.07,0.53-1.78,0.53c-1.06,0-1.88-0.41-2.46-1.24c-0.84-1.18-1.26-3.01-1.26-5.48
		C964.96,459.51,965.23,457.92,965.78,456.8 M961.45,464.07h-0.68c-0.35,1.27-0.94,2.22-1.75,2.84c-0.81,0.62-1.89,0.93-3.23,0.93
		h-0.77c-0.41,0-0.71-0.06-0.89-0.17c-0.18-0.11-0.31-0.26-0.38-0.43c-0.07-0.18-0.1-0.66-0.1-1.45v-4.04c0.69,0,1.5,0.09,1.86,0.27
		c0.36,0.18,0.68,0.53,0.95,1.05c0.27,0.52,0.45,1.1,0.54,1.92h0.58v-7.43h-0.58c-0.11,1.12-0.38,1.87-0.79,2.44
		c-0.41,0.57-1.08,0.86-1.99,0.86h-0.57v-4.99c0-0.87,0.77-0.77,0.77-0.77h0.9c1.09,0,1.84,0.06,2.23,0.19
		c0.68,0.21,1.21,0.54,1.58,0.99c0.37,0.45,0.66,1.2,0.87,2.23h0.49v-4.25h-12.14v0.59h0.38c0.47,0,0.83,0.1,1.1,0.3
		c0.19,0.13,0.32,0.32,0.39,0.57c0.04,0.15,0.05,0.55,0.05,1.19v8.98c0,0.72-0.04,1.16-0.12,1.33c-0.1,0.24-0.24,0.41-0.42,0.51
		c-0.25,0.15-0.59,0.22-1.01,0.22h-0.38v0.68h12.35L961.45,464.07L961.45,464.07z M938.14,467.96h-0.33c-0.47,0-0.89-0.14-1.25-0.43
		c-0.36-0.29-0.55-0.84-0.55-1.67v-8.67l9.4,11.71l0.61,0v-11.95c0-0.68,0.06-0.88,0.17-1.16s0.27-0.48,0.47-0.61
		c0.2-0.12,0.59-0.22,1.18-0.3v-0.61h-4.66v0.61c0.77-0.01,1.32,0.18,1.64,0.59c0.24,0.3,0.36,0.61,0.36,1.47v6.26l-7.31-8.93h-4.45
		v0.48c0.42,0.01,0.44,0.16,0.66,0.28l1.19,1.2l0,9.62c0,0.76-0.15,1.3-0.45,1.62c-0.3,0.32-0.83,0.48-1.6,0.49v0.58h4.92
		L938.14,467.96L938.14,467.96z M980.16,461.59c0,0.95-0.77,1.73-1.73,1.73c-0.95,0-1.73-0.77-1.73-1.73c0-0.95,0.77-1.73,1.73-1.73
		C979.38,459.87,980.16,460.64,980.16,461.59z"/>
	<path id="snk" class="st1" d="M261.62,91.02v-3.45h15.25c0.69,0,1.24-0.52,1.24-1.16s-0.56-1.16-1.24-1.16l-11.08,0
		c-2.56,0-4.34-1.9-4.34-4.61c0-2.67,1.83-4.61,4.35-4.61l16.92,0v3.45h-15.25c-0.69,0-1.24,0.52-1.24,1.16s0.56,1.16,1.24,1.16
		l11.08,0c2.56,0,4.34,1.9,4.34,4.61c0,2.67-1.83,4.61-4.35,4.61L261.62,91.02z M322.02,91.02l-9.13-7.75l8.96-7.25h5.49l-8.85,7.26
		l9.05,7.74H322.02z M307.96,91.02v-15h4.94v15H307.96z M301.09,91.02l-11.44-10.18v10.18h-4.94v-15h5.22l11.44,10.18V76.03h4.94v15
		H301.09z"/>
</g>
</svg>
